<svg version="1.1" id="Layer_1" xmlns="http://www.w3.org/2000/svg" xmlns:xlink="http://www.w3.org/1999/xlink" x="0px" y="0px"
	 width="56" height="28" viewBox="0 0 512 512" enable-background="new 0 0 512 512" xml:space="preserve">
<path fill="#000000" opacity="1.000000" stroke="none" 
	d="
M1.000000,192.000000 
	C1.000000,129.333328 1.035945,67.166588 0.903198,5.000206 
	C0.895885,1.575399 1.576367,0.903139 5.000061,0.905342 
	C172.999985,1.013444 341.000000,1.013444 508.999939,0.905342 
	C512.423645,0.903139 513.096802,1.576367 513.094604,5.000061 
	C512.986511,172.999985 512.986511,341.000000 513.094604,508.999939 
	C513.096802,512.423645 512.423645,513.096802 508.999939,513.094604 
	C341.000000,512.986511 172.999985,512.986511 5.000061,513.094604 
	C1.576367,513.096802 0.900775,512.423950 0.904565,508.999908 
	C1.021334,403.500031 1.000000,298.000000 1.000000,192.000000 
z"/>
<path fill="#BB86FC" opacity="1.000000" stroke="none" 
	d="
M153.000000,17.000017 
	C216.980331,17.000004 280.460724,17.029297 343.940857,16.929777 
	C347.899841,16.923571 350.751007,18.172913 353.507294,20.940186 
	C384.077271,51.632000 414.724518,82.247009 445.400391,112.833115 
	C447.883636,115.309128 449.063934,117.938644 449.061432,121.540901 
	C448.986053,230.173843 449.068970,338.807007 448.892181,447.439697 
	C448.874786,458.120087 443.940674,467.552643 437.525452,475.845093 
	C429.097412,486.739227 417.807983,493.369354 404.313477,496.408905 
	C402.312866,496.859497 400.412354,496.966553 398.480316,496.967346 
	C304.342804,497.005005 210.205307,497.022888 116.067841,496.970581 
	C104.719505,496.964294 94.921585,492.149475 86.160583,485.525848 
	C75.007423,477.093719 68.550079,465.454956 65.481094,451.906006 
	C65.120796,450.315399 65.018784,448.636383 65.018517,446.998322 
	C64.998009,320.370880 64.955849,193.743408 65.077332,67.116096 
	C65.087807,56.193657 69.997307,46.650089 76.455475,38.171204 
	C84.930023,27.045029 96.539497,20.540817 110.102409,17.474854 
	C111.693527,17.115177 113.373131,17.024261 115.012321,17.019539 
	C127.508133,16.983540 140.004089,16.999931 153.000000,17.000017 
z"/>
<path fill="#000000" opacity="1.000000" stroke="none" 
	d="
M115.274277,34.002579 
	C187.628845,31.716387 259.556335,33.676247 331.469879,32.895359 
	C336.031769,32.845821 337.228790,34.012169 337.114838,38.548149 
	C336.788452,51.538597 336.831543,64.545364 337.048615,77.540382 
	C337.252289,89.731255 342.276917,100.110619 349.887238,109.414612 
	C358.235107,119.620369 369.149506,125.376717 381.770386,128.454529 
	C383.436981,128.860962 385.013428,128.969269 386.627319,128.974350 
	C400.792358,129.019028 414.958405,129.078873 429.122162,128.935379 
	C432.047821,128.905746 433.084167,129.452499 433.079498,132.697525 
	C432.975525,204.856522 432.958679,277.015778 433.104095,349.174622 
	C433.112671,353.425690 431.028198,353.027313 428.250671,353.026245 
	C344.426086,352.994019 260.601501,353.000000 176.776917,353.000000 
	C146.446747,353.000000 116.116135,352.922546 85.786949,353.095337 
	C81.872787,353.117615 80.903923,352.119598 80.909027,348.211884 
	C81.026855,258.054779 80.930946,167.897385 81.058609,77.740295 
	C81.083954,59.840103 87.844696,45.366901 104.715805,37.150272 
	C107.852875,35.622444 111.445076,35.029121 115.274277,34.002579 
z"/>
<path fill="#000000" opacity="1.000000" stroke="none" 
	d="
M80.999992,396.000000 
	C81.000015,388.003479 81.176476,380.500885 80.919350,373.013214 
	C80.805199,369.689148 81.844070,368.914551 85.061745,368.927826 
	C114.714165,369.050232 144.367294,369.000000 174.020218,369.000000 
	C258.481079,369.000000 342.941986,369.034546 427.402618,368.901917 
	C431.804535,368.894989 433.197998,369.793030 433.125427,374.475189 
	C432.826019,393.794922 433.081146,413.122467 432.964905,432.446136 
	C432.908905,441.759094 432.543121,451.206696 427.731506,459.491211 
	C420.806976,471.413696 410.737488,478.883698 396.482635,480.033203 
	C370.418457,482.135040 344.320587,480.819305 318.243164,480.919403 
	C254.107178,481.165619 189.969345,481.101532 125.832832,480.934387 
	C107.977646,480.887817 93.374390,474.407898 85.135513,457.393463 
	C81.943817,450.802094 81.304878,443.581390 81.106880,436.478882 
	C80.735649,423.161926 80.999992,409.827301 80.999992,396.000000 
z"/>
<path fill="#000000" opacity="1.000000" stroke="none" 
	d="
M406.749146,99.250885 
	C411.242615,103.707817 415.486115,107.914734 420.611481,112.995941 
	C411.422363,112.995941 403.185730,113.558533 395.061768,112.842499 
	C386.415527,112.080437 377.808990,110.817902 370.380646,105.156158 
	C360.605530,97.705742 355.228333,88.370956 353.833008,76.065933 
	C352.711487,66.175415 353.394318,56.390396 352.944733,45.387489 
	C371.349396,63.812431 388.924255,81.406654 406.749146,99.250885 
z"/>
<path fill="#BB86FC" opacity="1.000000" stroke="none" 
	d="
M272.686615,222.725739 
	C261.198181,228.514053 250.025833,234.088242 238.843170,239.641602 
	C230.528748,243.770569 225.000595,240.419479 225.000259,231.271454 
	C224.999496,210.938202 224.998306,190.604950 225.000854,170.271698 
	C225.001923,161.751617 230.581055,158.281067 238.345779,162.139038 
	C257.235626,171.524597 276.075348,181.011002 294.938049,190.451248 
	C296.822601,191.394409 298.683319,192.404526 300.630249,193.199554 
	C304.254608,194.679565 305.041992,197.506042 305.064331,201.091873 
	C305.087158,204.753342 303.913727,207.279480 300.486389,208.928314 
	C291.278076,213.358307 282.155121,217.965698 272.686615,222.725739 
z"/>
<path fill="#BB86FC" opacity="1.000000" stroke="none" 
	d="
M349.998596,247.643677 
	C348.075623,254.399338 343.992310,259.469696 339.933563,264.433929 
	C337.142944,267.847168 330.750916,267.999451 327.894592,265.394867 
	C324.474731,262.276398 324.195892,257.800323 326.997894,253.495361 
	C329.192841,250.123169 331.356903,246.718704 333.306976,243.202286 
	C335.980347,238.381668 339.652924,236.117584 343.887085,237.018845 
	C348.126740,237.921280 349.997833,241.043610 349.998596,247.643677 
z"/>
<path fill="#BB86FC" opacity="1.000000" stroke="none" 
	d="
M181.622803,246.130493 
	C185.603592,251.327606 189.529327,256.119110 192.905350,261.270844 
	C195.498947,265.228638 193.539139,269.176025 190.447891,271.632111 
	C187.344421,274.097900 183.154556,273.942902 179.955780,271.315491 
	C174.854187,267.125153 171.408676,261.488495 168.070404,255.890793 
	C165.975159,252.377396 167.112900,248.645996 169.763397,246.165115 
	C173.197571,242.950729 177.396133,242.947723 181.622803,246.130493 
z"/>
<path fill="#BB86FC" opacity="1.000000" stroke="none" 
	d="
M173.245056,175.411896 
	C172.495987,185.762268 165.419052,188.169220 160.170898,185.931992 
	C156.221146,184.248260 154.280457,180.601501 155.230515,176.791122 
	C156.620712,171.215500 158.051712,165.550323 160.904205,160.392532 
	C163.586945,155.541718 167.423798,153.659348 171.953857,155.435638 
	C176.125412,157.071335 178.215469,161.633469 176.744339,166.500275 
	C175.862762,169.416687 174.555771,172.204514 173.245056,175.411896 
z"/>
<path fill="#BB86FC" opacity="1.000000" stroke="none" 
	d="
M352.013367,224.999649 
	C344.694305,223.555191 342.589569,220.040161 343.780731,213.265808 
	C344.654510,208.296524 343.476837,203.112808 344.999573,198.127808 
	C346.154816,194.345825 350.219299,191.259583 353.857300,192.085052 
	C357.908203,193.004196 361.223999,194.945847 360.995941,199.911270 
	C360.717346,205.977875 361.630829,212.078247 360.052826,218.116699 
	C358.974182,222.244080 356.792297,224.732178 352.013367,224.999649 
z"/>
<path fill="#BB86FC" opacity="1.000000" stroke="none" 
	d="
M333.733459,154.663345 
	C334.095551,150.943024 335.949280,148.594162 339.117767,148.138931 
	C342.245056,147.689575 345.738434,147.119446 348.083038,150.534485 
	C352.245758,156.597824 355.229279,163.046295 356.068024,170.484711 
	C356.578247,175.009567 354.108154,177.390839 350.602600,178.659088 
	C346.883331,180.004669 342.735229,178.953781 341.171478,175.393829 
	C338.260681,168.767044 333.828827,162.621765 333.733459,154.663345 
z"/>
<path fill="#BB86FC" opacity="1.000000" stroke="none" 
	d="
M164.730957,201.017395 
	C171.457230,204.623566 169.545685,211.333176 170.907181,216.731689 
	C171.984497,221.003433 173.692673,225.515152 170.091415,229.710785 
	C168.160446,231.960434 165.792236,232.774155 163.114334,232.489609 
	C159.968613,232.155350 157.050827,231.095383 156.011719,227.565506 
	C154.175522,221.327805 152.843506,215.009811 152.996613,208.454559 
	C153.147858,201.977997 158.074799,198.727570 164.730957,201.017395 
z"/>
<path fill="#BB86FC" opacity="1.000000" stroke="none" 
	d="
M230.705017,117.693375 
	C226.669128,118.456207 223.304749,121.097931 219.188629,119.051262 
	C215.827240,117.379860 214.213272,114.490868 214.190918,111.338165 
	C214.169083,108.259071 215.388977,104.961754 218.887955,103.590561 
	C224.877930,101.243195 231.099655,99.649292 237.356888,98.238060 
	C239.956818,97.651688 245.317154,101.644958 245.963760,104.307648 
	C246.958420,108.403717 244.595551,113.627480 240.821274,114.922455 
	C237.646393,116.011780 234.308380,116.625679 230.705017,117.693375 
z"/>
<path fill="#BB86FC" opacity="1.000000" stroke="none" 
	d="
M180.674164,129.822571 
	C185.322083,126.214516 187.898529,120.960426 193.504730,118.759064 
	C198.321320,116.867752 201.195816,119.138435 203.605164,122.294930 
	C205.959015,125.378738 204.830566,131.553543 201.600433,133.638290 
	C198.047394,135.931458 195.505569,139.176971 192.537323,142.008911 
	C187.321869,146.984894 183.180115,147.512161 178.932129,143.412323 
	C175.529083,140.127975 176.166702,134.335052 180.674164,129.822571 
z"/>
<path fill="#BB86FC" opacity="1.000000" stroke="none" 
	d="
M321.957062,118.993546 
	C324.700317,121.343628 327.166382,123.567345 329.446045,125.968048 
	C332.744965,129.442108 332.848022,134.100830 329.866699,137.439911 
	C327.424927,140.174683 321.630493,141.078003 318.561035,138.779907 
	C314.263214,135.562149 310.254791,131.960251 306.076508,128.579636 
	C303.003784,126.093544 302.276642,122.633125 303.154053,119.243286 
	C304.012543,115.926659 307.013275,113.864342 310.328064,113.383720 
	C315.147003,112.684998 318.302948,116.129044 321.957062,118.993546 
z"/>
<path fill="#BB86FC" opacity="1.000000" stroke="none" 
	d="
M318.839783,284.456299 
	C312.659790,290.025726 306.335114,294.632385 298.179688,296.043091 
	C294.316711,296.711365 291.882904,294.371521 290.560089,291.766632 
	C289.111359,288.913666 288.832153,284.490814 291.380066,282.521729 
	C297.274048,277.966766 303.415802,272.992432 311.099487,272.157898 
	C318.451782,271.359344 321.738220,276.867218 318.839783,284.456299 
z"/>
<path fill="#BB86FC" opacity="1.000000" stroke="none" 
	d="
M271.478424,97.772552 
	C276.727203,97.430153 281.214355,99.269081 285.746094,100.404045 
	C290.227295,101.526352 293.053101,107.260773 291.849548,111.374557 
	C290.629395,115.545013 286.121552,118.035728 280.625244,116.910767 
	C275.718994,115.906609 270.877258,114.648247 265.909271,113.851921 
	C261.606018,113.162140 259.009369,108.073502 260.017120,103.391045 
	C260.940704,99.099510 265.772827,96.566582 271.478424,97.772552 
z"/>
<path fill="#BB86FC" opacity="1.000000" stroke="none" 
	d="
M222.948059,299.000153 
	C215.458923,298.075592 209.352127,294.639679 203.602264,290.877747 
	C199.898605,288.454590 200.146667,283.813873 201.601242,280.112213 
	C203.124451,276.235870 208.776093,274.833435 213.100601,276.599487 
	C218.019714,278.608307 222.588821,281.341827 227.497971,283.428131 
	C231.608612,285.175049 231.672104,289.714325 230.835846,293.377319 
	C230.049301,296.822510 227.547028,299.370117 222.948059,299.000153 
z"/>
<path fill="#BB86FC" opacity="1.000000" stroke="none" 
	d="
M263.865051,305.000122 
	C260.387024,305.000122 257.388336,305.000916 254.389633,304.999817 
	C248.848663,304.997803 245.343674,302.621582 245.000916,298.636108 
	C244.435959,292.066986 246.848694,288.697296 253.526749,288.116821 
	C259.148468,287.628143 264.860687,287.767151 270.505463,288.096832 
	C274.522461,288.331451 277.009949,291.970764 277.000031,296.532166 
	C276.989532,301.355469 274.362885,304.320618 269.338043,304.957733 
	C267.698029,305.165680 266.010284,304.996704 263.865051,305.000122 
z"/>
<path fill="#BB86FC" opacity="1.000000" stroke="none" 
	d="
M178.920044,433.793427 
	C180.124466,437.608368 181.686874,440.724518 183.992584,443.548096 
	C190.061188,450.979858 198.851578,449.092010 203.973709,441.113525 
	C204.055740,440.985718 203.985718,440.764313 204.061127,440.627655 
	C208.100571,433.306305 208.101379,433.306732 200.048828,432.999878 
	C194.975372,432.806488 193.018768,430.611908 193.000076,425.093689 
	C192.981079,419.483734 194.874054,417.127625 199.843216,417.029633 
	C206.001205,416.908234 212.163620,417.032135 218.323715,416.989197 
	C222.011627,416.963470 224.488037,418.891388 224.898636,422.293335 
	C226.832428,438.316010 218.623672,459.455170 200.533554,464.094543 
	C188.867310,467.086426 176.775940,463.941254 167.880127,450.838135 
	C157.561111,435.638794 158.001419,408.072418 172.337463,393.203644 
	C180.727921,384.501404 195.574142,382.169495 205.642914,387.873840 
	C210.043976,390.367188 209.480225,394.394562 208.740021,397.759094 
	C208.131989,400.522766 205.762955,403.271851 201.932648,403.004761 
	C200.451355,402.901428 198.916580,403.068604 197.491364,402.741394 
	C190.310272,401.092865 186.364731,402.238037 182.547455,408.032196 
	C177.410294,415.829773 176.782120,424.444672 178.920044,433.793427 
z"/>
<path fill="#BB86FC" opacity="1.000000" stroke="none" 
	d="
M242.782898,463.249695 
	C238.976303,455.721710 240.797318,447.295258 251.059067,449.038269 
	C256.332245,449.933929 257.256683,447.675568 257.117004,442.870239 
	C256.764038,430.724426 256.829956,418.557770 257.094543,406.407440 
	C257.184082,402.297668 256.517761,400.011139 251.838516,400.976746 
	C251.039902,401.141541 250.178085,401.003815 249.345490,400.999451 
	C242.966949,400.966156 240.975937,399.030762 241.000000,392.889679 
	C241.023544,386.886871 243.041855,385.010254 249.547134,385.003113 
	C260.037994,384.991608 270.528931,384.978821 281.019684,385.008240 
	C286.973389,385.024933 288.994293,387.082214 289.000153,392.975983 
	C289.006104,398.968506 287.078552,400.928223 281.107452,401.000153 
	C273.000000,401.097809 272.999969,401.097809 273.000000,409.449432 
	C273.000031,421.438995 273.078979,433.429474 272.940765,445.417450 
	C272.909058,448.167877 273.579193,449.425629 276.487366,449.029938 
	C277.795319,448.851990 279.147583,448.995911 280.479767,449.000732 
	C286.955902,449.024231 288.986023,450.915771 289.000244,456.935547 
	C289.014832,463.094482 287.077057,464.985352 280.648193,464.995544 
	C270.157349,465.012177 259.665924,464.943939 249.176041,465.045166 
	C246.948288,465.066681 244.963058,464.665222 242.782898,463.249695 
z"/>
<path fill="#BB86FC" opacity="1.000000" stroke="none" 
	d="
M324.106049,416.999359 
	C325.909912,416.999939 327.241791,416.994873 328.573608,417.000885 
	C334.999817,417.029999 337.006561,418.942352 337.000275,425.025940 
	C336.993958,431.141327 335.058228,432.970428 328.561432,433.000061 
	C321.000031,433.034546 321.000000,433.034546 321.000000,440.493195 
	C321.000000,446.320007 321.078278,452.148224 320.976501,457.973267 
	C320.886871,463.103394 318.691956,464.977875 313.111816,465.000183 
	C307.530762,465.022491 305.050049,463.091278 305.033295,458.157593 
	C304.958099,436.015930 304.978149,413.873840 305.020050,391.731964 
	C305.028259,387.403168 307.375671,385.046326 311.706604,385.022369 
	C323.193390,384.958801 334.681458,384.929993 346.167664,385.033539 
	C351.095581,385.077972 353.024445,387.537140 353.000214,393.122009 
	C352.976074,398.685822 351.088379,400.904144 345.963165,400.975067 
	C338.805878,401.074097 331.642273,401.137115 324.489410,400.933563 
	C321.590576,400.851105 320.754822,401.814056 320.949188,404.583710 
	C321.170074,407.731384 321.083527,410.909363 320.970612,414.068481 
	C320.899811,416.049347 321.265320,417.362671 324.106049,416.999359 
z"/>
<path fill="#000000" opacity="1.000000" stroke="none" 
	d="
M240.999969,207.963669 
	C240.999969,199.397034 240.999969,191.325012 240.999969,182.526062 
	C253.462738,188.749008 265.246460,194.632904 277.964325,200.983231 
	C265.364563,207.291809 253.518707,213.222916 240.999969,219.490921 
	C240.999969,215.318466 240.999969,211.888367 240.999969,207.963669 
z"/>
</svg>