<svg version="1.1" id="Layer_1" xmlns="http://www.w3.org/2000/svg" xmlns:xlink="http://www.w3.org/1999/xlink" x="0px" y="0px"
	 width="56" height="28" viewBox="0 0 512 512" enable-background="new 0 0 512 512" xml:space="preserve">
<path fill="#000000" opacity="1.000000" stroke="none" 
	d="
M283.000000,513.000000 
	C190.022568,513.000000 97.545113,512.979248 5.067797,513.085327 
	C1.793118,513.089050 0.894799,512.632568 0.897299,509.069580 
	C1.015163,341.110626 1.016892,173.151596 0.891560,5.192689 
	C0.888754,1.432075 1.853166,0.913752 5.305367,0.915734 
	C173.097717,1.012080 340.890106,1.011571 508.682465,0.918525 
	C512.101685,0.916629 513.113770,1.386178 513.110840,5.180495 
	C512.982544,173.139420 512.985107,341.098450 513.101318,509.057404 
	C513.103760,512.595459 512.245361,513.092651 508.944366,513.087646 
	C433.796356,512.973755 358.648163,513.000000 283.000000,513.000000 
z"/>
<path fill="#C8C8C7" opacity="1.000000" stroke="none" 
	d="
M137.199677,329.927185 
	C170.761322,331.810181 203.840500,333.926239 236.946243,335.474304 
	C290.908386,337.997589 344.866791,337.959045 398.691284,332.749390 
	C424.046509,330.295258 449.194366,326.363770 473.161499,317.086670 
	C475.003540,316.373657 476.895203,315.676483 477.028137,318.611542 
	C477.144623,321.183990 481.499786,323.909027 476.316498,326.395966 
	C460.422546,334.021759 444.299377,341.053589 427.677002,346.949860 
	C378.545135,364.377838 327.796112,370.034607 275.908813,369.033783 
	C200.125488,367.572113 124.380486,365.116852 48.652893,361.989960 
	C39.606941,361.616455 33.170628,354.909607 33.020325,345.819397 
	C32.910172,339.157257 33.201355,332.482971 32.913128,325.831451 
	C32.763065,322.368286 33.958508,321.704590 37.129528,321.981995 
	C54.381535,323.491211 71.646736,324.851929 88.911102,326.216980 
	C104.848015,327.477051 120.789612,328.678101 137.199677,329.927185 
z"/>
<path fill="#E3E3E2" opacity="1.000000" stroke="none" 
	d="
M80.534988,216.535172 
	C92.643906,219.816956 104.454155,222.482788 116.508636,224.203934 
	C132.892044,226.543152 148.281097,223.301865 163.265564,217.054169 
	C165.532364,216.109055 167.227524,215.530334 169.387039,217.769913 
	C194.687210,244.007828 226.071030,260.353851 259.730774,272.937286 
	C265.472198,275.083679 271.246094,277.143402 277.271118,279.340179 
	C268.852051,293.953369 258.100952,306.411194 247.184906,318.751282 
	C245.964752,320.130585 244.536118,319.927490 243.069321,319.847046 
	C211.299973,318.104126 179.532837,316.320160 147.760406,314.635712 
	C144.757202,314.476501 143.133499,313.384064 141.894562,310.515778 
	C135.242371,295.114960 128.271362,279.852051 121.579338,264.468079 
	C119.957901,260.740662 117.643005,258.262787 113.877045,256.547424 
	C89.236763,245.324020 64.704300,233.864029 40.076454,222.613022 
	C37.106113,221.256042 35.639660,220.048752 36.779339,216.416733 
	C38.111446,212.171494 37.249153,205.669189 39.897133,203.830688 
	C42.749985,201.849930 47.949169,206.058334 52.189137,207.373672 
	C61.544044,210.275864 70.840958,213.364990 80.534988,216.535172 
z"/>
<path fill="#EB5648" opacity="1.000000" stroke="none" 
	d="
M82.184341,309.829865 
	C66.786613,308.532928 51.864571,307.107666 36.913895,306.112640 
	C33.141357,305.861572 32.194050,304.540039 32.087948,301.042114 
	C31.486713,281.221283 30.945580,261.416199 32.924702,241.625931 
	C33.264179,238.231308 33.910297,237.217926 37.376698,238.838440 
	C59.676586,249.263214 82.047997,259.535034 104.402229,269.843414 
	C105.622437,270.406097 106.848900,270.888977 107.448990,272.239746 
	C113.375046,285.579132 119.310234,298.914429 125.565987,312.977295 
	C110.729736,311.899994 96.689575,310.880524 82.184341,309.829865 
z"/>
<path fill="#EB5648" opacity="1.000000" stroke="none" 
	d="
M175.567383,139.593933 
	C178.664978,138.675476 181.350601,137.739594 184.112381,137.178497 
	C186.040634,136.786743 188.449295,134.478180 189.787186,138.299011 
	C190.796295,141.180969 191.971298,143.344269 188.581436,145.986511 
	C163.490524,165.543732 138.580795,185.333832 113.676865,205.129654 
	C111.639221,206.749344 109.794090,207.092270 107.280266,206.580917 
	C86.676735,202.389923 66.763641,195.937866 47.170326,188.430771 
	C45.401806,187.753174 42.079487,187.902924 43.188103,184.638855 
	C44.247150,181.520721 42.817478,177.246918 48.005787,175.843292 
	C66.144783,170.936005 84.171814,165.615387 102.246658,160.470337 
	C126.557846,153.550049 150.873932,146.646973 175.567383,139.593933 
z"/>
<path fill="#EA5648" opacity="1.000000" stroke="none" 
	d="
M213.091705,232.894730 
	C202.932144,226.117432 193.673080,218.790970 185.005722,210.693832 
	C182.890793,208.718033 182.516724,207.684723 185.403610,206.134491 
	C193.331238,201.877426 200.842545,196.924347 208.233932,191.795746 
	C209.441299,190.958008 210.422562,190.044296 212.147995,191.234634 
	C215.819733,193.767685 219.694824,196.005981 224.836227,199.204803 
	C220.770050,202.778366 217.192184,205.994781 213.529373,209.111389 
	C211.707474,210.661591 211.888367,211.770416 213.481110,213.541275 
	C222.149033,223.178528 222.095001,223.227097 231.328156,214.004395 
	C238.343521,206.996979 238.343536,206.996994 246.997345,211.970123 
	C254.424194,216.238159 254.424194,216.238174 248.590317,222.078445 
	C243.364517,227.310013 243.364517,227.310043 248.485367,232.458786 
	C254.660629,238.667694 254.660629,238.667664 260.985016,232.346893 
	C268.964020,224.372467 268.964050,224.372482 278.784119,229.627991 
	C288.188721,234.661148 288.301331,234.676193 286.883148,245.286316 
	C286.178680,250.556534 284.893921,255.746735 284.028137,260.998901 
	C283.605621,263.562012 282.825165,264.302063 280.078918,263.322937 
	C257.005249,255.096344 234.278366,246.137192 213.091705,232.894730 
z"/>
<path fill="#E95648" opacity="1.000000" stroke="none" 
	d="
M468.906555,301.484863 
	C446.026672,310.530914 422.331268,314.066101 398.476929,316.672791 
	C373.786255,319.370911 348.971527,320.135681 322.691650,320.840881 
	C326.420410,316.751617 329.911926,313.731262 332.395538,310.033813 
	C337.916962,301.813995 345.099640,299.674377 354.860931,300.424408 
	C387.384094,302.923370 418.516785,296.952972 447.860138,282.510345 
	C451.377686,280.779053 454.044098,281.145691 456.959442,283.373077 
	C463.013733,287.998810 467.720367,293.502502 468.906555,301.484863 
z"/>
<path fill="#E2483C" opacity="1.000000" stroke="none" 
	d="
M301.262573,256.205444 
	C301.895050,252.336029 302.518219,248.899292 302.964081,245.439713 
	C303.194824,243.649078 303.477631,242.489731 305.671936,243.566345 
	C310.593842,245.981247 315.542450,248.344162 320.518311,250.645798 
	C323.460114,252.006546 321.413544,253.119781 320.411255,254.245667 
	C315.639862,259.605499 315.630310,259.596985 320.656281,264.623138 
	C326.686707,270.653778 327.502502,271.250031 332.247711,264.757385 
	C339.073517,255.417938 345.784210,261.571930 352.704010,263.224884 
	C352.842377,264.773926 351.752716,265.443329 351.001984,266.263245 
	C335.271301,283.443420 319.487335,300.575043 303.821259,317.813843 
	C301.761597,320.080261 299.725067,321.163055 296.559143,321.086304 
	C287.143982,320.858032 277.719788,321.004517 266.666779,321.004517 
	C283.149261,300.979187 298.300262,281.979187 301.262573,256.205444 
z"/>
<path fill="#4C4C4C" opacity="1.000000" stroke="none" 
	d="
M75.442970,151.430252 
	C66.631393,153.965698 58.201080,156.363693 48.786213,159.041748 
	C50.779911,151.382706 52.502209,144.534134 54.369522,137.725342 
	C54.979439,135.501419 57.283371,135.610275 58.950508,135.314026 
	C82.492775,131.130829 106.055733,127.064255 129.609009,122.942711 
	C141.713394,120.824577 153.822601,118.728653 165.900253,116.465912 
	C170.187958,115.662628 174.185135,115.954758 177.900177,118.275383 
	C178.941849,118.926071 180.702286,119.300575 180.416962,120.952248 
	C180.169876,122.382576 178.513763,122.023430 177.476822,122.321136 
	C153.355637,129.246338 129.223236,136.132462 105.088646,143.010925 
	C95.338997,145.789627 85.579338,148.533218 75.442970,151.430252 
z"/>
<path fill="#4C4C4C" opacity="1.000000" stroke="none" 
	d="
M202.605606,170.424072 
	C203.142151,172.696091 205.084564,174.520889 202.300339,176.440735 
	C183.209900,189.604263 163.776596,202.052338 140.825836,207.578934 
	C139.576187,207.879852 138.318527,208.374222 136.550583,207.410095 
	C146.061768,199.835052 155.374588,192.399811 164.707550,184.989914 
	C174.474838,177.235199 184.319183,169.575974 194.003937,161.719788 
	C196.853470,159.408264 198.579803,158.855865 199.696564,163.124954 
	C200.322556,165.517975 201.513184,167.763290 202.605606,170.424072 
z"/>
<path fill="#DDDDDC" opacity="1.000000" stroke="none" 
	d="
M364.815735,274.807251 
	C369.089325,268.068787 374.361786,267.034973 381.841278,268.707916 
	C394.897461,271.628052 408.274109,273.115417 422.118713,275.298218 
	C401.058502,285.097351 379.178223,284.755005 356.691864,284.767395 
	C358.780426,280.634583 362.083618,278.163361 364.815735,274.807251 
z"/>
</svg>