<svg version="1.1" id="Layer_1" xmlns="http://www.w3.org/2000/svg" xmlns:xlink="http://www.w3.org/1999/xlink" x="0px" y="0px"
	 width="56" height="28" viewBox="0 0 323 262" >
<path fill="#020102" opacity="1.000000" stroke="none" 
	d="
M1.344310,94.189560 
	C1.000000,64.183327 1.044622,34.366486 0.927770,4.550274 
	C0.916652,1.713540 1.318876,0.903925 4.446198,0.907246 
	C109.720573,1.019029 214.995117,1.016952 320.269501,0.918335 
	C323.434967,0.915370 324.078979,1.686048 324.075531,4.765491 
	C323.981171,89.551338 323.967651,174.337372 324.109711,259.123077 
	C324.115875,262.792969 323.045563,263.091644 319.880920,263.079590 
	C286.233429,262.951355 252.585281,263.000000 218.468658,263.000000 
	C218.010269,255.228607 216.145172,247.529434 217.264160,239.389618 
	C220.089752,235.715149 220.959381,232.567429 218.413864,228.372040 
	C216.341873,224.957108 218.178452,220.778076 218.546478,216.591034 
	C218.603516,215.762711 218.692154,215.295181 218.958084,214.498505 
	C219.347183,213.736328 219.574249,213.299255 219.886963,212.488983 
	C220.372955,210.046661 221.867920,209.157089 224.067017,208.519424 
	C224.879242,208.223053 225.340439,208.057373 226.139282,207.775696 
	C233.094894,205.570175 236.781555,200.982880 237.930084,193.872284 
	C237.646515,187.261292 234.981216,182.389526 229.328842,179.531967 
	C226.577774,178.141190 226.103210,176.074753 226.534576,173.039505 
	C228.330765,167.896881 228.869034,162.832092 230.170013,157.567261 
	C231.400925,151.535294 231.215195,145.435776 235.789322,140.892700 
	C236.913361,139.776306 237.101395,138.163223 236.001892,136.796188 
	C234.878174,135.399017 233.096176,135.182327 232.032532,136.335342 
	C226.677887,142.139816 218.997421,140.824493 212.442841,142.838547 
	C209.460938,143.754791 205.638962,145.780914 202.959152,141.797485 
	C200.324539,137.881195 203.574265,135.039566 205.104950,131.530396 
	C208.282364,123.212524 215.483078,119.508408 222.176239,114.780167 
	C224.369919,113.956909 226.281891,113.444183 228.060974,112.547600 
	C231.685120,110.721169 234.935120,110.495934 238.595810,113.196136 
	C243.263626,116.639175 248.454803,115.757820 251.425919,111.869148 
	C254.304474,108.101585 253.687592,103.543671 249.455200,99.512306 
	C247.345062,97.502403 245.202896,95.727318 246.423309,92.022980 
	C246.991287,89.701393 246.945129,87.682182 247.275909,85.310295 
	C248.032318,79.683365 252.180954,76.843262 255.672211,73.852165 
	C258.539948,71.395271 262.697784,70.849228 266.091949,68.989044 
	C267.910370,67.992462 269.580200,69.054001 271.087036,70.210327 
	C274.381622,72.738541 278.025269,74.023193 282.231049,73.205742 
	C284.447662,72.774902 285.982697,73.693947 287.300293,75.479858 
	C289.524567,78.494698 291.488312,81.685440 293.972778,84.988571 
	C295.757507,87.191544 295.838806,89.133118 294.544952,91.235916 
	C292.643921,94.325562 292.281921,97.754669 292.614319,101.681381 
	C293.289368,104.583694 292.323639,106.291252 290.264801,107.821075 
	C287.287689,110.033226 284.212250,112.127144 281.119934,114.808075 
	C279.036133,116.807602 276.944214,117.211296 274.438873,116.959190 
	C266.900757,116.200645 264.346039,119.389397 267.068939,126.209351 
	C267.910004,128.315933 267.893677,130.015488 266.498901,132.124573 
	C264.615723,135.366516 264.747314,139.072540 262.253296,142.058304 
	C260.795715,146.034286 258.752625,148.269058 254.406967,148.745361 
	C248.565033,149.385651 245.588226,153.390472 245.141220,159.591492 
	C245.759857,164.355896 248.291336,167.828842 252.510742,168.104492 
	C258.722473,168.510284 261.012634,172.086411 262.494934,177.544006 
	C263.327911,180.117783 263.317108,182.217361 261.366211,183.826477 
	C257.911926,186.675568 256.562744,190.501083 256.081482,195.130737 
	C256.901245,201.890259 260.708679,206.410492 266.205048,207.525818 
	C272.653931,208.834442 277.998138,206.329865 281.190125,200.406662 
	C281.888245,199.111191 282.809845,197.865692 282.843567,195.928162 
	C282.695526,192.147812 281.492706,189.091736 279.538879,186.323563 
	C278.179901,184.398056 277.609344,182.470444 279.357544,180.077240 
	C282.327667,175.342377 285.402466,171.113983 288.322205,166.356766 
	C290.235718,162.120209 292.697052,160.127106 297.450500,161.325134 
	C307.349670,163.820068 313.897247,160.542496 318.738953,150.938232 
	C319.833130,146.443970 319.957306,142.376968 317.683838,138.169632 
	C309.632874,125.294586 294.874268,125.377838 287.191254,138.354095 
	C286.131195,142.478287 285.384674,146.274048 286.675964,150.491821 
	C287.630371,152.068756 287.851105,153.705551 288.932678,154.711945 
	C292.804993,158.315033 291.744659,161.771622 288.633057,165.569199 
	C285.891388,170.487213 282.790405,174.730301 279.690796,179.462158 
	C275.714081,182.787582 267.816589,182.458572 263.045685,178.750717 
	C262.433289,177.309250 262.364990,176.118378 261.732361,175.141068 
	C259.503143,171.697311 259.496460,168.483978 262.480042,165.399139 
	C263.512665,164.331497 263.811951,162.802094 264.328369,161.008926 
	C265.440643,156.995804 264.000000,153.863861 261.970093,151.107803 
	C260.065979,148.522522 259.805450,146.153198 261.673401,143.167938 
	C263.600830,140.165298 264.929657,137.316406 265.639404,133.806335 
	C267.216797,130.407669 269.026672,127.987152 272.745483,127.240379 
	C275.789764,126.629059 277.200104,124.091240 277.547943,121.072983 
	C277.797241,118.909676 278.128296,116.820114 280.528412,115.356659 
	C282.459961,113.377754 284.530304,112.152367 286.358734,110.625893 
	C290.285828,107.347359 293.950897,105.157639 299.711578,107.907326 
	C305.050079,110.455521 310.229156,107.438141 313.302246,101.572136 
	C313.915588,91.218704 310.039185,87.145332 300.085480,87.541893 
	C297.817993,87.632240 295.792084,87.691582 294.221863,85.213562 
	C292.198944,82.849289 291.149292,80.178482 289.262238,78.262650 
	C285.970642,74.920898 285.789856,71.656647 288.540527,67.654053 
	C290.015533,62.889999 290.178528,58.644760 286.167175,55.469147 
	C282.186859,52.318108 277.721191,52.291767 273.611176,55.015774 
	C270.110626,57.335857 267.125153,56.850903 263.668182,54.514389 
	C261.094391,53.548019 259.361908,51.869778 257.114014,50.940430 
	C250.713120,48.294056 250.407547,47.519264 251.184250,40.456604 
	C249.141708,28.401894 236.581253,23.957310 228.551056,31.141550 
	C226.737396,32.764153 224.720718,33.028126 222.695251,31.381126 
	C221.049911,30.043226 219.149445,29.023632 217.292007,28.134895 
	C214.044022,26.580826 212.658920,24.323872 212.494003,20.768238 
	C212.293518,16.446007 210.333344,13.103599 205.780090,11.972443 
	C202.158813,11.072817 199.165070,12.283110 196.989746,15.186561 
	C194.373123,18.679043 194.617538,22.482290 197.026993,25.859529 
	C199.087906,28.748226 199.044937,31.295362 197.200821,34.086220 
	C195.449249,36.737076 194.642685,39.805031 193.232758,43.028824 
	C189.790359,47.926811 188.094330,48.209194 183.010635,44.732647 
	C180.111359,40.838978 176.140900,38.478649 173.750336,34.562668 
	C172.270157,32.137989 171.970642,30.190563 173.272812,27.661648 
	C174.893875,24.513395 175.578827,21.129974 174.729507,17.530273 
	C173.362381,11.735881 170.148605,7.421525 164.311325,5.950538 
	C158.545349,4.497518 152.988464,5.310416 148.869110,10.232308 
	C144.802490,15.091211 143.234802,20.861677 146.378998,26.423233 
	C149.254639,31.509724 148.425583,35.041367 144.407928,38.555553 
	C142.781952,39.977779 142.026337,41.993908 140.737335,44.115154 
	C136.969528,48.841854 132.960632,51.298546 126.874268,49.477257 
	C124.010399,48.620274 122.140182,47.517288 121.118889,44.374069 
	C120.459366,42.793964 120.328598,41.435543 119.648155,40.284924 
	C116.881424,35.606411 116.458221,31.473505 120.582100,26.904022 
	C123.590347,23.570709 122.760391,18.947512 120.002403,15.344332 
	C117.227524,11.719080 113.448364,10.852895 109.277031,11.823658 
	C104.983086,12.822957 101.710411,15.773328 101.765396,20.088074 
	C101.847084,26.498083 98.339561,29.313877 93.227356,31.414257 
	C91.388634,32.169704 89.618217,33.123226 87.939476,34.221657 
	C84.815765,36.265556 81.839455,36.712650 78.150368,34.939415 
	C72.578346,32.261089 68.417618,33.232704 65.163483,37.297325 
	C63.206043,44.118458 64.150032,47.089211 69.680511,50.464230 
	C71.896660,51.816647 73.133286,53.359276 72.870071,56.346565 
	C73.065842,58.829948 72.988609,60.940277 72.973854,63.463135 
	C74.022568,69.706596 69.126709,70.776039 65.660858,72.940155 
	C61.644939,75.447731 59.371895,71.862350 56.217819,70.021927 
	C54.393204,69.104233 53.076099,68.093857 51.664745,67.241577 
	C48.668659,65.432312 45.945850,63.572800 46.776081,59.103127 
	C47.247509,56.565125 45.497036,54.348812 42.983299,53.255150 
	C40.668110,52.247871 38.385956,52.511265 36.515335,54.267284 
	C34.499779,56.159367 34.190998,58.612057 34.940765,61.146767 
	C35.809658,64.084229 38.267994,66.069611 40.910587,65.167931 
	C46.260403,63.342510 50.004566,65.724106 54.159073,68.801689 
	C55.576664,69.722542 56.753120,70.311691 57.825935,71.080147 
	C62.582085,74.486954 62.971527,75.782127 60.817509,81.811600 
	C60.464157,86.444214 56.759605,86.306999 54.135643,86.785866 
	C50.612274,87.428864 47.070465,87.955795 43.579395,88.811409 
	C40.415508,89.586845 38.129498,88.329514 36.572041,85.512428 
	C34.857777,82.411713 32.545879,79.873619 29.418608,78.105621 
	C20.187605,72.886894 8.953177,77.146606 5.615961,87.201843 
	C4.885188,89.403709 4.322453,91.657600 2.731827,93.885681 
	C2.189427,94.224754 1.939023,94.301933 1.344310,94.189560 
z"/>
<path fill="#020102" opacity="1.000000" stroke="none" 
	d="
M216.169006,262.693298 
	C145.747498,263.000000 75.494919,262.965546 5.242665,263.099091 
	C1.632153,263.105957 0.891538,262.348663 0.901138,258.751984 
	C1.044205,205.147400 1.000000,151.542297 1.000000,97.468658 
	C3.514107,95.381500 4.689184,97.199234 5.631174,98.983665 
	C7.791265,103.075554 10.826736,106.211716 14.943654,108.338989 
	C17.247456,109.529396 18.397633,111.374435 17.700130,114.433487 
	C17.715422,117.594269 15.932159,118.653740 13.641674,119.656166 
	C6.892591,122.609856 5.164477,125.825203 6.009948,133.510727 
	C6.821034,137.183441 9.444457,139.175903 12.191878,139.832764 
	C18.321417,141.298218 18.838945,145.546112 18.488689,150.840958 
	C17.623838,152.586578 16.256493,153.222351 15.050253,154.091782 
	C9.644438,157.988144 8.404688,164.226013 11.830327,169.852127 
	C14.886791,174.871918 21.147121,176.535019 26.622717,173.781845 
	C32.044617,171.055664 34.287067,164.904510 32.133694,158.997360 
	C31.345594,156.835434 29.624990,155.061264 29.541042,152.257706 
	C31.777617,144.928619 36.957088,139.614304 40.022224,133.120468 
	C40.232079,132.675858 40.423916,132.223160 40.856899,131.469345 
	C42.507099,128.949844 44.476429,127.902687 47.165257,127.472290 
	C51.995605,126.699089 53.624142,124.331589 53.176064,119.468872 
	C52.947346,116.986732 52.375408,114.521812 54.065636,111.912186 
	C57.079624,107.550041 60.457577,103.895683 63.019611,99.182739 
	C65.085228,95.767113 67.551903,94.586166 71.146591,95.847610 
	C73.339859,96.617271 75.706055,96.622398 78.033112,96.299309 
	C80.030701,96.021973 81.628288,96.580040 82.818832,98.812531 
	C87.273079,107.181900 84.895638,113.803108 78.554474,119.960297 
	C74.381836,125.977013 69.697647,131.120850 65.228653,136.894196 
	C63.090706,138.902328 61.525604,140.965515 58.835590,141.807022 
	C56.684212,142.480026 55.460808,144.577637 56.527531,146.583710 
	C58.764374,150.790237 57.734020,155.059128 57.516193,159.704346 
	C57.361465,162.833893 55.979549,164.465912 53.438007,165.749954 
	C48.663280,168.162277 46.844116,171.829926 47.713009,176.276688 
	C48.460377,180.101486 50.807983,182.496353 54.643303,183.229324 
	C58.854332,184.034103 62.512852,181.869781 65.090630,177.234512 
	C68.667610,170.802521 77.927444,170.017883 82.205780,175.784241 
	C86.477089,181.541107 91.715935,183.713516 97.788139,182.056046 
	C104.539696,180.213150 107.278618,175.259048 107.788567,168.323746 
	C107.732269,167.122925 107.647003,166.268356 107.138695,165.607330 
	C102.858643,160.041443 104.347076,155.032761 108.817886,149.934326 
	C115.186455,141.715668 127.948837,138.323669 135.383743,143.033112 
	C135.943222,145.584000 136.963989,147.479965 138.574280,148.895844 
	C142.318176,152.187729 142.055466,155.770233 139.518707,159.501343 
	C139.054443,160.184189 138.835388,160.909592 138.371613,161.963196 
	C134.585403,168.827545 131.547577,175.653198 127.994217,182.622314 
	C125.990112,184.777466 123.439331,184.353104 121.265343,185.048080 
	C116.327705,186.626541 113.485420,189.929016 113.626350,194.227325 
	C113.757584,198.230240 117.213875,202.112808 121.334473,202.886154 
	C125.500885,203.668076 129.837753,201.354553 131.442062,196.673874 
	C133.685684,190.127945 139.434219,192.084152 143.898026,191.053162 
	C146.852020,190.370880 149.396271,191.324722 150.895157,194.370834 
	C154.016479,200.714218 159.359390,203.806519 166.252914,203.272995 
	C173.448654,202.716110 177.994492,198.370224 180.163116,191.507645 
	C180.413467,190.715363 180.754272,189.964691 180.723343,188.735779 
	C180.678482,187.176346 180.220642,186.092682 179.945999,184.967606 
	C178.325531,178.328995 178.367157,178.231522 184.673309,174.543945 
	C191.479843,171.232025 197.236786,172.412704 202.779053,177.347443 
	C209.629120,181.328003 209.605087,186.856781 207.308014,193.401276 
	C207.214905,195.349518 207.994537,196.676758 208.397751,198.098114 
	C210.170517,204.347519 206.370651,208.413788 200.067520,206.576340 
	C195.853424,205.347885 191.951035,205.455017 187.974762,207.071854 
	C187.154114,207.405548 186.590073,207.932373 186.237946,209.143494 
	C183.066422,217.546494 184.838120,222.199417 192.669861,225.306030 
	C195.500870,226.429016 197.102829,227.957993 197.483109,231.256805 
	C198.416870,234.117767 197.854156,236.283371 196.534027,238.622513 
	C194.039688,243.042267 195.674500,246.142197 200.531464,246.662155 
	C207.427277,247.400375 211.704361,251.447800 214.363586,257.487274 
	C215.069244,259.089905 216.857010,260.289795 216.169006,262.693298 
z"/>
<path fill="#A72BB4" opacity="1.000000" stroke="none" 
	d="
M16.548040,115.313705 
	C15.765273,113.673080 17.175379,111.644699 15.221253,110.988289 
	C7.938239,108.541847 4.495106,102.624275 1.234881,96.632736 
	C1.000000,96.250000 1.000000,95.500000 1.000000,94.375000 
	C1.209433,94.229134 1.418866,94.458275 1.974451,94.375961 
	C3.465802,92.046982 5.441591,91.770447 7.458575,91.690872 
	C17.884796,91.279549 28.230997,92.474297 39.021969,93.447792 
	C42.543720,95.145790 42.522377,97.704613 41.374275,100.334839 
	C38.844902,106.129501 34.993870,110.698555 28.785711,112.819992 
	C26.128624,113.727959 23.515934,114.725853 20.643475,116.227066 
	C19.012877,116.501266 17.844185,116.502953 16.548040,115.313705 
z"/>
<path fill="#533ACF" opacity="1.000000" stroke="none" 
	d="
M216.333328,263.000000 
	C211.356598,260.239441 211.874680,253.556000 206.684830,250.999466 
	C204.641830,249.993073 203.209381,248.377060 200.520874,249.096649 
	C197.526199,249.898178 194.980972,248.622040 193.383957,245.914215 
	C191.783356,243.200317 191.980591,240.396774 194.090149,238.138443 
	C195.612427,236.508804 196.183014,234.897369 195.778076,232.421112 
	C196.487518,231.279526 196.956406,230.314392 198.382660,229.912567 
	C203.326324,232.131561 206.410446,235.820801 208.181793,240.526611 
	C208.868912,242.352066 208.879120,244.434280 211.333984,245.558228 
	C212.582458,243.019226 210.350906,240.061935 212.745117,237.632690 
	C215.365952,235.946915 217.477066,235.933914 219.290070,238.793335 
	C217.774078,244.177261 217.564362,249.069550 220.520126,253.595917 
	C223.306534,257.862976 221.083725,260.249237 217.804962,262.659363 
	C217.555557,263.000000 217.111099,263.000000 216.333328,263.000000 
z"/>
<path fill="#AF2AB1" opacity="1.000000" stroke="none" 
	d="
M40.412270,94.979294 
	C27.755390,95.701172 15.524625,93.375648 2.768409,94.051483 
	C1.448031,84.900795 6.769464,76.789497 15.409291,74.113808 
	C23.975620,71.460884 33.693958,74.925491 37.690403,82.861572 
	C39.624245,86.701759 41.667164,87.427078 45.378555,86.210686 
	C49.815788,84.756393 54.909580,85.815674 59.085396,82.366455 
	C60.234093,80.509087 61.690216,79.818161 63.434135,79.777832 
	C71.680481,79.587143 79.934700,78.996262 88.603104,80.299141 
	C93.039017,81.171951 93.469063,83.811142 92.613792,87.141899 
	C91.352921,92.052246 88.030273,95.882095 85.377945,100.499451 
	C84.118240,101.047340 83.258514,101.005264 82.038635,100.346817 
	C80.796677,99.304337 80.438698,98.000198 78.582138,98.548126 
	C75.339760,99.505058 71.937149,99.268394 68.900650,97.792824 
	C66.253685,96.506546 66.033546,99.068527 64.419540,100.055359 
	C62.954494,100.223755 62.196964,99.597450 61.487358,98.310539 
	C58.618534,91.004036 57.749626,90.598892 50.193279,91.990814 
	C46.906555,92.596260 43.757233,93.504616 40.412270,94.979294 
z"/>
<path fill="#D024A5" opacity="1.000000" stroke="none" 
	d="
M139.313904,43.038063 
	C139.844666,41.721157 140.421890,40.681011 141.230713,39.872597 
	C145.405334,35.700066 147.230621,32.026016 143.621414,25.694542 
	C139.748886,18.901117 143.476120,10.172453 150.014236,5.615051 
	C155.906403,1.507900 164.818314,1.699370 170.548599,6.056218 
	C176.748840,10.770384 179.192032,18.958149 176.619431,26.088251 
	C175.903641,28.072046 173.452164,29.980900 174.369797,31.826830 
	C175.796463,34.696754 177.668198,37.543446 180.432571,39.533291 
	C181.491989,40.295868 182.459061,41.186745 183.653931,42.323280 
	C183.622787,43.796871 182.989029,44.646702 181.527161,45.257938 
	C178.316345,46.104176 176.924744,44.053844 175.447495,42.321274 
	C172.567276,38.943203 169.233139,37.675343 164.906662,39.422508 
	C161.911942,40.631863 158.744858,40.642509 155.677734,39.664894 
	C151.932480,38.471138 148.875641,39.149216 146.548569,42.446831 
	C145.532059,43.887306 144.226349,44.774719 141.970261,44.460526 
	C140.743713,44.375462 140.040421,44.034325 139.313904,43.038063 
z"/>
<path fill="#D024A4" opacity="1.000000" stroke="none" 
	d="
M191.820038,42.237495 
	C191.845032,39.888855 193.098465,38.428791 193.878586,36.820938 
	C195.736404,32.991959 197.760178,29.786581 193.947906,25.328440 
	C190.832321,21.685026 191.982513,16.698530 195.251114,12.938786 
	C198.345200,9.379775 202.373123,8.014164 206.965958,9.472022 
	C211.680145,10.968398 214.347977,14.295875 215.019333,19.269070 
	C215.273697,21.153347 213.917053,23.391758 215.843002,24.893593 
	C218.579819,27.027769 222.075882,28.034204 224.577698,30.599586 
	C224.743576,30.769665 225.985138,30.050962 226.610550,29.588900 
	C238.618362,20.717159 249.435562,24.493008 253.639694,39.464161 
	C252.524475,41.956318 250.535614,42.245956 248.539246,42.287701 
	C240.814880,42.449219 233.085236,42.826920 224.961502,41.920807 
	C222.395584,41.315926 221.370529,39.890789 220.572723,37.836872 
	C218.545502,32.617786 214.848526,31.398605 209.512329,32.698376 
	C203.686859,34.117329 199.412018,36.719624 197.830444,42.818573 
	C197.527649,43.986183 196.431610,44.637173 194.880692,45.058655 
	C192.941162,44.985214 192.091553,44.068813 191.820038,42.237495 
z"/>
<path fill="#CE24A3" opacity="1.000000" stroke="none" 
	d="
M63.134666,37.371105 
	C66.729355,30.443090 73.372009,28.609257 79.203415,33.049847 
	C81.612717,34.884521 83.182343,34.443497 85.289711,33.242241 
	C87.447426,32.012287 89.605797,30.727592 91.899628,29.804018 
	C96.626518,27.900808 99.773987,25.574303 99.356689,19.446762 
	C99.029083,14.636450 103.935165,9.979829 108.623711,9.028990 
	C113.868889,7.965264 118.525703,9.095060 122.037933,13.445915 
	C125.439896,17.660175 126.819183,24.108614 123.041519,27.630733 
	C117.397896,32.892597 120.575211,37.227634 122.451965,42.478893 
	C122.099709,43.545204 121.510178,44.052563 120.336914,44.348103 
	C118.335365,44.440701 116.812454,43.920910 116.210899,42.429508 
	C113.575706,35.896084 106.685699,36.509384 101.795631,33.832546 
	C99.642021,32.653648 97.422638,34.722580 95.297691,35.580124 
	C91.380821,37.160816 88.024918,40.414265 82.906616,39.640587 
	C78.102531,39.331585 73.691101,39.584484 69.291397,39.377300 
	C67.212814,39.279423 64.988792,39.529873 63.134666,37.371105 
z"/>
<path fill="#6E36CB" opacity="1.000000" stroke="none" 
	d="
M184.095795,209.389587 
	C187.831314,202.882996 193.700867,200.969467 200.046448,203.993057 
	C202.116135,204.979248 203.607437,205.773224 205.743713,203.901947 
	C207.932770,201.984436 206.625580,200.432602 206.054977,198.622757 
	C205.659515,197.368515 205.454163,196.054321 205.232941,194.385605 
	C206.282074,192.477554 207.749481,191.844940 209.493057,191.773636 
	C218.241776,191.415802 226.991287,191.375809 235.738693,191.802032 
	C237.078232,191.867294 238.353653,192.217422 239.646973,193.656738 
	C239.817657,202.324036 235.054260,207.095032 227.362381,209.935135 
	C226.869629,210.159409 226.725861,210.314651 226.311386,210.304245 
	C224.160156,210.623459 221.839706,210.444275 221.323669,213.593689 
	C221.287079,214.201874 221.377197,214.396210 221.265381,214.840515 
	C221.066940,215.452713 220.909943,215.721069 220.361633,215.972809 
	C219.537888,216.508652 218.932785,216.942734 217.791473,217.008575 
	C216.387314,216.713776 215.717239,216.013550 215.263672,215.081558 
	C212.116745,208.615387 211.340515,208.357132 205.076477,211.950394 
	C199.638351,212.662720 194.577087,212.581604 189.525055,212.173447 
	C187.553528,212.014160 185.685410,211.378555 184.095795,209.389587 
z"/>
<path fill="#7935C9" opacity="1.000000" stroke="none" 
	d="
M240.107620,193.589111 
	C228.738281,194.004654 217.469223,194.002380 205.751068,194.002197 
	C204.926651,192.361526 204.729828,190.606384 205.550720,189.156494 
	C208.084351,184.681488 206.193985,181.877975 202.134872,179.385925 
	C201.352295,178.164062 201.049957,177.191177 201.706314,175.781815 
	C202.434509,175.020996 203.135284,174.388321 203.661453,174.634872 
	C211.325943,178.226151 217.583374,172.323715 224.972855,171.591431 
	C226.162338,171.565582 226.866959,171.834213 227.696014,172.695312 
	C228.327103,174.917297 228.755234,176.384918 230.950607,177.510757 
	C237.156998,180.693588 240.377808,186.025864 240.107620,193.589111 
z"/>
<path fill="#8D2FBA" opacity="1.000000" stroke="none" 
	d="
M206.795212,131.599030 
	C206.884048,132.308609 206.780807,132.620071 206.706894,132.938339 
	C206.085876,135.612061 202.088303,137.644562 204.708252,140.854950 
	C207.044022,143.717102 209.949677,141.130295 212.546219,140.822205 
	C215.820389,140.433701 219.029419,139.515579 222.277542,138.882294 
	C225.182022,138.315979 227.761124,137.747177 229.580582,134.726639 
	C231.436218,131.646042 235.761902,131.626389 238.272552,133.994583 
	C240.778473,136.358322 241.102615,140.923599 238.175949,142.768997 
	C232.860214,146.120804 233.763275,151.706726 232.150085,156.731766 
	C231.147354,157.820007 230.159698,158.337448 228.517868,158.051575 
	C225.136566,155.965942 226.659729,153.137375 226.814774,150.643890 
	C227.104080,145.991287 226.062088,144.732925 221.498138,145.643219 
	C215.583420,146.822906 209.428040,147.267944 205.761765,153.632324 
	C203.539963,157.489197 197.263672,158.497513 192.595917,156.765244 
	C188.700241,155.319534 186.443619,152.326721 185.830612,148.250610 
	C185.024353,142.889404 187.052765,138.428528 191.814163,136.199783 
	C195.721298,134.370895 199.345139,132.266083 203.235306,129.764191 
	C204.836044,129.828491 205.866730,130.233398 206.795212,131.599030 
z"/>
<path fill="#9130C0" opacity="1.000000" stroke="none" 
	d="
M285.023621,151.397186 
	C282.892303,146.966660 283.076599,142.796722 284.863373,138.315720 
	C286.963257,136.115356 289.373108,135.650452 291.886932,135.638062 
	C300.763672,135.594330 309.648224,135.152115 318.994781,136.036774 
	C322.414856,140.455185 322.702637,145.270554 321.221069,150.649323 
	C319.617340,152.282684 318.011902,153.175171 316.105591,153.222473 
	C306.626648,153.457764 297.138763,154.012756 287.692413,152.623840 
	C286.840149,152.498520 286.110535,152.147186 285.023621,151.397186 
z"/>
<path fill="#A42CB4" opacity="1.000000" stroke="none" 
	d="
M247.904694,91.677521 
	C248.023392,94.227531 248.382690,95.796783 250.608398,97.295166 
	C256.363190,101.169373 257.387238,108.184288 253.479279,113.355698 
	C249.394684,118.760857 242.150131,119.688797 236.865524,114.964233 
	C234.271866,112.645447 232.085922,112.737053 229.347168,114.005829 
	C227.567551,114.830261 225.713760,115.494606 223.514130,116.267372 
	C222.111984,115.994835 221.135162,115.614502 220.426331,114.251968 
	C220.235504,111.451447 221.816727,110.265320 223.815414,109.733246 
	C228.069992,108.600594 230.372711,105.893204 231.570389,101.711662 
	C233.300003,95.672829 239.394485,94.163582 244.050400,90.671692 
	C245.600662,90.487358 246.715118,90.519272 247.904694,91.677521 
z"/>
<path fill="#C725A7" opacity="1.000000" stroke="none" 
	d="
M222.325119,39.969421 
	C232.675385,39.911640 242.627945,39.913395 253.088226,39.892647 
	C251.107941,46.121090 254.909180,48.447594 259.903625,50.166378 
	C261.278320,50.639454 262.486420,51.596558 263.983765,52.608253 
	C264.345642,53.866810 264.637421,54.851658 263.933350,56.126690 
	C262.100372,57.891331 260.489532,57.399414 258.697723,56.613583 
	C249.924881,52.766037 249.909714,52.800617 246.661377,61.765488 
	C245.472382,62.557541 244.523148,62.993610 243.053436,63.141155 
	C238.598419,59.385586 233.419037,57.709110 228.564713,55.388786 
	C224.268158,53.335060 221.930893,49.518932 220.839294,44.982285 
	C220.419724,43.238529 220.022980,41.337074 222.325119,39.969421 
z"/>
<path fill="#7635C9" opacity="1.000000" stroke="none" 
	d="
M281.220154,179.850159 
	C280.238647,181.969681 280.064484,183.323898 281.616669,185.074142 
	C284.086853,187.859467 285.213928,191.375305 284.901489,195.601074 
	C283.845306,197.252625 282.637512,198.054031 281.033325,198.149429 
	C273.240784,198.612839 265.448517,198.678314 257.658264,198.104645 
	C256.455200,198.016037 255.427338,197.506866 254.178833,196.337219 
	C252.812897,190.616943 255.052246,186.429062 258.783966,182.829025 
	C259.907379,181.745239 261.818726,181.151505 260.905334,178.598419 
	C260.662384,176.198044 262.031067,176.410629 263.735748,176.724640 
	C266.834869,179.517242 275.446014,180.201508 278.489197,177.849274 
	C280.051056,177.657043 280.903931,178.237320 281.220154,179.850159 
z"/>
<path fill="#BB29B1" opacity="1.000000" stroke="none" 
	d="
M242.408691,62.740204 
	C243.542068,62.031891 244.352737,61.569084 245.515182,61.044289 
	C248.132050,61.002060 248.873840,62.652748 249.558594,64.395714 
	C251.155869,68.461357 254.064804,69.140671 257.972900,67.873070 
	C261.197601,66.827148 264.126678,64.498497 268.248505,65.366776 
	C273.896851,65.686035 279.149506,65.401962 284.391937,65.613411 
	C286.635284,65.703896 289.051086,65.360626 291.066589,67.681244 
	C284.907043,74.961342 293.141479,78.337784 295.058502,83.582657 
	C295.053650,84.938606 294.592834,85.747192 293.236023,86.221283 
	C291.806061,85.666870 291.324341,84.633194 290.687897,83.651215 
	C287.717102,79.067368 285.120697,73.969810 277.948914,76.124397 
	C275.453827,76.873978 273.330292,74.695183 271.091003,73.676170 
	C269.482941,72.944397 269.285370,69.376213 266.589233,71.097946 
	C262.710022,73.575218 256.724701,72.866531 254.841949,78.178955 
	C253.788666,81.150948 250.370651,81.624512 249.276230,84.717697 
	C248.469971,85.529778 247.802963,85.985039 246.547455,86.049072 
	C243.681427,85.065536 242.913727,82.482880 240.919037,80.520546 
	C240.386658,79.729225 240.173752,79.232323 239.969269,78.301361 
	C240.321609,72.883896 241.357407,67.957314 242.408691,62.740204 
z"/>
<path fill="#B729AF" opacity="1.000000" stroke="none" 
	d="
M90.627869,81.627708 
	C80.258057,81.936111 70.193542,81.965210 59.674591,81.992447 
	C61.920193,75.837807 57.915810,73.029144 53.241074,70.184235 
	C52.783936,68.027367 53.824680,67.455223 55.872620,67.715836 
	C57.355885,68.558853 58.497295,69.169441 59.561089,69.894005 
	C63.284206,72.429848 69.873650,69.499039 71.075485,64.394539 
	C71.950020,63.105717 72.914291,62.519802 74.610352,62.628983 
	C78.654602,64.970528 82.760521,66.409576 86.235168,68.942604 
	C90.686287,72.187492 92.248154,76.447861 90.627869,81.627708 
z"/>
<path fill="#8931C1" opacity="1.000000" stroke="none" 
	d="
M284.663452,151.506165 
	C288.996155,149.252014 293.410675,151.195953 297.814880,151.062302 
	C305.226166,150.837402 312.649231,151.000717 320.536316,151.000397 
	C317.922241,161.437546 307.914764,167.109787 297.291870,163.821548 
	C293.662109,162.697983 291.678284,163.194870 289.906982,166.707672 
	C288.117554,167.959320 287.001129,167.831085 286.810608,165.473511 
	C289.265961,162.096558 290.621368,159.232864 286.882812,156.157410 
	C285.749664,155.225220 285.411743,153.326324 284.663452,151.506165 
z"/>
<path fill="#BF27AA" opacity="1.000000" stroke="none" 
	d="
M291.528748,67.747681 
	C283.385406,67.498642 275.409912,68.929436 267.148285,67.042984 
	C264.090363,64.052330 263.996704,60.174831 262.786011,56.479214 
	C263.220154,55.246052 263.498688,54.351292 263.986877,53.170746 
	C267.408813,54.767681 270.007843,54.760277 273.395721,52.262669 
	C277.564819,49.189163 282.650909,49.792423 286.956268,52.861095 
	C292.018127,56.468971 293.373566,61.500912 291.528748,67.747681 
z"/>
<path fill="#AE2BB4" opacity="1.000000" stroke="none" 
	d="
M292.947510,86.565674 
	C293.461304,85.599220 294.050934,84.940681 294.916016,84.093399 
	C296.570160,84.544456 297.543579,85.477188 299.552429,85.172844 
	C310.764008,83.474289 317.105743,89.794540 315.836365,101.564926 
	C307.652100,105.946327 299.522614,105.299873 290.883118,102.409882 
	C288.991119,97.934441 289.728546,93.979713 292.198242,90.329781 
	C292.939301,89.234558 294.097656,88.354622 292.947510,86.565674 
z"/>
<path fill="#6E36CB" opacity="1.000000" stroke="none" 
	d="
M253.742584,196.409027 
	C263.822266,196.007797 273.852783,196.004120 284.338623,196.001663 
	C283.625000,204.738312 277.564270,210.481415 269.388184,210.601227 
	C261.475769,210.717148 255.307648,205.295792 253.742584,196.409027 
z"/>
<path fill="#C925A7" opacity="1.000000" stroke="none" 
	d="
M62.656181,37.204144 
	C69.745331,37.410938 76.622231,36.159153 83.787323,37.919617 
	C87.144417,42.368385 86.868553,46.509308 83.272575,50.413494 
	C81.055557,52.820534 78.211296,54.538078 75.530029,57.070236 
	C73.862579,57.511974 72.682281,57.444538 71.300919,56.282860 
	C70.576660,54.842731 70.720200,53.756500 69.126434,52.940483 
	C61.879299,49.229885 60.199043,45.042347 62.656181,37.204144 
z"/>
<path fill="#962FBB" opacity="1.000000" stroke="none" 
	d="
M319.345581,135.716553 
	C317.799347,138.036514 315.465851,137.995102 313.144897,137.995438 
	C304.096954,137.996765 295.048981,137.998672 285.537170,138.000504 
	C287.680725,130.547318 293.509399,127.016335 300.816925,126.172913 
	C308.717438,125.261055 315.004425,128.518372 319.345581,135.716553 
z"/>
<path fill="#8B31C1" opacity="1.000000" stroke="none" 
	d="
M263.043579,142.748413 
	C261.978546,145.861374 262.003326,148.097946 264.491760,150.551575 
	C266.989532,153.014404 268.024902,156.492645 267.281128,160.597061 
	C266.343994,161.639069 265.568481,162.491776 264.548309,162.399521 
	C257.565491,161.767990 250.327560,164.144180 243.222443,160.329224 
	C242.319412,152.228882 246.867386,146.519272 254.692474,146.251541 
	C258.068695,146.136032 259.324310,144.748672 260.496124,141.837296 
	C261.568085,141.587601 262.278992,141.839264 263.043579,142.748413 
z"/>
<path fill="#BE27AA" opacity="1.000000" stroke="none" 
	d="
M56.045998,67.607544 
	C55.311920,68.403969 54.373775,68.911949 53.228241,69.671692 
	C49.491943,67.659630 46.343906,65.907806 41.511070,67.709885 
	C36.848358,69.448532 32.095516,64.888695 31.739187,59.771236 
	C31.376120,54.557037 35.051334,50.333672 40.160961,50.093365 
	C45.226601,49.855129 50.457672,54.131462 49.374924,58.844746 
	C48.220974,63.867954 50.971214,64.819267 54.211163,66.194504 
	C54.806587,66.447243 55.300930,66.938133 56.045998,67.607544 
z"/>
<path fill="#C326A7" opacity="1.000000" stroke="none" 
	d="
M118.522995,43.232460 
	C119.763763,42.968819 120.689873,42.936962 122.078491,42.878494 
	C125.882294,49.599758 133.043564,49.665371 138.896545,42.826859 
	C140.183655,42.770226 141.206696,42.886047 142.742767,43.044952 
	C143.475525,43.336060 143.837112,43.693336 143.747299,43.893032 
	C141.568359,48.737663 141.448486,54.085930 139.628021,59.274452 
	C131.666992,62.546005 124.028366,62.277012 115.980904,59.572639 
	C112.374367,57.726116 112.918823,54.819576 114.330170,52.737392 
	C116.298927,49.832836 117.024361,46.592751 118.522995,43.232460 
z"/>
<path fill="#992DB6" opacity="1.000000" stroke="none" 
	d="
M282.127747,115.724243 
	C280.860229,117.509712 279.751434,118.754189 279.852783,121.155388 
	C280.073792,126.390602 277.599854,129.375137 272.543823,130.138565 
	C270.059906,130.513641 268.672089,131.555359 267.550598,133.916412 
	C265.876251,134.733124 264.864899,134.568542 264.800873,132.449905 
	C265.745026,130.162552 265.987335,128.531570 264.569244,126.605736 
	C262.287933,123.507568 262.532593,120.037254 264.836609,116.988708 
	C267.308960,113.717400 270.797424,112.947342 274.536743,114.283974 
	C276.276611,114.905891 277.654297,115.025192 279.449280,113.746605 
	C280.772186,113.906487 281.661743,114.314209 282.127747,115.724243 
z"/>
<path fill="#8132C0" opacity="1.000000" stroke="none" 
	d="
M242.815308,160.394791 
	C250.661423,160.373856 258.522064,159.156052 266.696838,160.919815 
	C267.280640,162.952621 266.565643,164.879379 265.218292,165.901184 
	C261.042297,169.068161 262.341827,172.539734 264.130493,176.566742 
	C263.251831,177.227417 262.349365,177.511780 261.161194,178.012207 
	C259.330109,173.638412 256.967926,170.903595 251.339294,170.465942 
	C246.500488,170.089722 243.454102,165.961243 242.815308,160.394791 
z"/>
<path fill="#A32BB3" opacity="1.000000" stroke="none" 
	d="
M282.518280,115.971146 
	C281.532135,115.453865 280.857758,114.820107 279.994385,113.891663 
	C282.648804,111.324226 285.520111,109.085182 288.322388,106.762833 
	C289.510284,105.778381 291.467041,105.137161 290.481049,102.545143 
	C298.539703,102.121628 306.652039,102.052994 315.211121,101.980957 
	C312.230560,110.450554 304.450775,113.860252 296.866272,109.655098 
	C293.911713,108.016975 292.187195,108.464928 289.959198,110.424843 
	C287.721954,112.392937 285.217438,114.057243 282.518280,115.971146 
z"/>
<path fill="#C126A6" opacity="1.000000" stroke="none" 
	d="
M191.666351,42.084908 
	C192.679459,42.493942 193.425232,43.142975 194.459991,43.884460 
	C194.898407,44.042633 195.102264,44.067005 195.188599,44.180656 
	C195.832062,45.027699 201.757538,60.734489 201.755859,62.273552 
	C201.018997,63.541912 200.056488,63.876713 198.745514,64.320572 
	C196.494446,64.937119 195.162567,63.866745 193.972397,62.700535 
	C190.892059,59.682190 187.962097,59.427795 185.087723,62.937344 
	C184.305756,63.892097 183.285431,64.376801 181.673904,64.371719 
	C180.221573,64.210350 179.431976,63.629757 178.720886,62.378185 
	C178.323563,61.242786 177.769257,60.245193 178.208527,59.635120 
	C181.666046,54.833305 180.337753,49.646484 179.849945,44.230385 
	C181.092407,43.624203 182.098572,43.282337 183.472198,42.783936 
	C186.451599,44.829281 189.069763,47.186783 191.666351,42.084908 
z"/>
<path fill="#5C39CE" opacity="1.000000" stroke="none" 
	d="
M216.698547,216.108231 
	C217.868851,216.018631 218.622894,216.026733 219.753876,216.042450 
	C219.854675,218.098282 220.781662,220.104568 219.605515,222.277420 
	C218.601593,224.132111 219.304352,226.206802 220.865707,228.064484 
	C224.429749,232.304871 224.109039,235.078629 219.734497,239.136627 
	C217.541397,238.162033 215.620895,238.216553 213.301346,238.948334 
	C207.990891,238.969528 204.866882,234.285355 207.739227,229.908096 
	C210.696930,225.400757 213.181549,220.610046 216.698547,216.108231 
z"/>
<path fill="#992CB3" opacity="1.000000" stroke="none" 
	d="
M220.061554,113.253815 
	C221.058731,114.290695 221.862869,114.974579 222.901031,115.981262 
	C220.951462,117.605591 218.135315,118.101517 217.639282,121.396225 
	C217.444550,122.689522 216.116653,123.813263 214.806961,123.921959 
	C210.106140,124.312080 209.034134,128.117569 207.166031,131.698700 
	C206.065628,131.648865 205.157578,131.303726 203.976471,130.709473 
	C203.195587,124.522354 202.713074,118.400856 206.263901,113.284859 
	C209.372757,108.805634 213.204193,108.995911 220.061554,113.253815 
z"/>
<path fill="#7B30B5" opacity="1.000000" stroke="none" 
	d="
M227.675018,157.068954 
	C229.173645,156.995316 230.211472,157.007919 231.638519,157.017502 
	C231.272858,162.258194 230.891876,167.592773 228.106354,172.703186 
	C227.196609,173.011841 226.471695,173.005173 225.384384,173.005997 
	C223.894669,172.467331 222.989594,171.515564 223.155411,170.336182 
	C223.801529,165.740540 223.260040,160.740250 227.675018,157.068954 
z"/>
<path fill="#7931BB" opacity="1.000000" stroke="none" 
	d="
M286.823425,165.360535 
	C287.401886,166.070160 288.011993,166.737488 289.362000,166.927307 
	C288.107025,171.958145 284.330811,175.570190 281.416962,180.074265 
	C280.502625,179.564682 279.875671,178.870087 279.021667,177.908081 
	C281.397644,173.629532 284.000610,169.618378 286.823425,165.360535 
z"/>
<path fill="#872DAE" opacity="1.000000" stroke="none" 
	d="
M264.789886,132.302185 
	C265.568115,132.658325 266.115021,133.271179 266.959534,133.997009 
	C267.224915,137.457840 265.920502,140.317627 263.554260,142.994858 
	C262.584869,142.745346 261.947357,142.398361 261.037476,141.808945 
	C262.029633,138.563980 263.294098,135.561432 264.789886,132.302185 
z"/>
<path fill="#B426A1" opacity="1.000000" stroke="none" 
	d="
M70.891724,56.428772 
	C71.944023,55.980946 72.938293,55.977180 74.305450,55.969292 
	C77.885483,58.099762 77.531319,60.697235 75.170486,63.753952 
	C73.738251,64.010178 72.792236,64.004784 71.491516,64.006569 
	C71.035774,61.633438 70.934738,59.253132 70.891724,56.428772 
z"/>
<path fill="#B028A7" opacity="1.000000" stroke="none" 
	d="
M245.084015,84.993332 
	C246.425430,84.912590 247.317886,84.951530 248.656967,84.998947 
	C248.919434,87.125389 248.735291,89.243355 248.352722,91.696762 
	C247.177841,92.021309 246.201416,92.010422 244.858887,91.997635 
	C241.293182,89.634354 242.596039,87.366066 245.084015,84.993332 
z"/>
<path fill="#4A2B89" opacity="1.000000" stroke="none" 
	d="
M226.206451,210.214966 
	C226.217972,209.963715 226.430878,209.884521 226.846375,209.952576 
	C226.854340,210.222000 226.640625,210.317734 226.206451,210.214966 
z"/>
<path fill="#4A2B89" opacity="1.000000" stroke="none" 
	d="
M221.179428,214.928741 
	C220.936096,214.848679 220.913773,214.597580 221.096695,214.172333 
	C221.370605,214.242416 221.403427,214.495575 221.179428,214.928741 
z"/>
<path fill="#7135C8" opacity="1.000000" stroke="none" 
	d="
M182.414673,188.640320 
	C181.643890,198.120941 176.550583,203.932892 168.150131,205.609100 
	C160.399353,207.155685 153.103180,203.469254 148.910492,195.543549 
	C147.818283,193.478851 146.795547,192.551910 144.383408,192.917130 
	C139.505142,193.655731 134.663315,193.247101 132.561722,199.830734 
	C130.918808,204.977448 124.273003,206.760345 118.979401,204.973923 
	C113.896225,203.258545 110.565254,198.291992 110.982964,193.051056 
	C111.429672,187.446350 115.829849,182.880463 121.586479,182.156387 
	C123.055641,181.971603 124.557938,182.050293 126.443016,181.874237 
	C127.853943,181.644135 128.848282,181.197311 130.234039,181.726227 
	C134.917709,188.745255 141.529465,186.549042 148.097168,186.113419 
	C157.213623,186.817184 165.942200,186.398056 174.658173,186.600861 
	C177.220978,186.660492 179.996140,186.139145 182.414673,188.640320 
z"/>
<path fill="#7D33C4" opacity="1.000000" stroke="none" 
	d="
M109.560280,167.656708 
	C110.272812,176.155121 105.936485,182.627075 98.689949,184.707794 
	C91.434029,186.791214 84.009300,183.810028 80.197357,176.656967 
	C78.756760,173.953690 77.055862,173.534897 74.644234,174.108383 
	C72.026047,174.730957 68.772499,173.431366 67.447411,177.663406 
	C65.512848,183.842026 60.741455,186.670380 54.980015,186.040207 
	C49.925335,185.487320 45.732971,181.469284 44.946293,176.423721 
	C44.049011,170.668747 46.702461,166.107391 52.693520,163.525543 
	C54.149780,162.897964 55.425552,162.409882 55.782253,160.328964 
	C56.517799,159.492126 57.128475,159.021805 58.305305,158.890747 
	C61.097881,160.323776 63.573521,161.942780 65.312317,163.962036 
	C68.697670,167.893402 72.372902,168.413528 76.841873,166.647186 
	C77.776970,166.277588 78.802826,166.366028 80.187302,166.117615 
	C88.628960,165.102234 96.684761,165.589752 104.732819,165.709274 
	C106.364975,165.733521 108.046295,165.909744 109.560280,167.656708 
z"/>
<path fill="#932FBD" opacity="1.000000" stroke="none" 
	d="
M134.621643,145.346863 
	C131.424667,140.791901 126.785545,142.494385 123.586807,143.092667 
	C120.282982,143.710602 117.009842,146.071182 113.519516,147.294235 
	C112.272804,147.731079 111.352592,149.240280 110.768906,151.007034 
	C109.193611,151.741272 108.150558,151.242126 107.021637,149.876099 
	C106.438637,144.914795 108.454132,140.782318 109.541855,136.543976 
	C110.517006,132.744278 116.884850,131.584396 121.228210,133.747879 
	C128.761932,137.500534 129.572403,137.325058 134.875336,130.793365 
	C139.677841,124.878052 147.823059,122.840645 155.153107,125.721161 
	C161.373779,128.165710 165.707443,134.951920 165.214386,141.429337 
	C165.057907,143.485199 164.769913,145.430344 162.032318,146.374542 
	C152.667511,147.545837 143.744492,148.884125 134.621643,145.346863 
z"/>
<path fill="#8332C3" opacity="1.000000" stroke="none" 
	d="
M30.592892,151.640152 
	C31.408262,152.950714 32.046936,153.911896 32.705414,154.859283 
	C37.559361,161.842972 36.222942,170.451675 29.547783,175.174316 
	C23.292326,179.599976 14.573384,178.123825 10.038885,171.871368 
	C5.254454,165.274292 6.812497,156.689102 13.726826,151.710022 
	C14.391874,151.231110 15.188328,150.934662 16.269094,150.468597 
	C19.028034,150.270218 21.336687,149.830978 23.639814,148.132843 
	C25.044075,147.898590 26.076820,147.904053 27.455772,148.318527 
	C29.129723,149.003174 29.877283,150.050461 30.592892,151.640152 
z"/>
<path fill="#7A34C7" opacity="1.000000" stroke="none" 
	d="
M182.795044,188.604843 
	C171.088791,188.556992 159.424988,189.978622 147.430405,188.045013 
	C144.669098,186.618561 144.884262,184.621475 145.504745,182.377655 
	C148.694336,170.843475 161.815475,164.336716 172.700439,169.378220 
	C176.317612,171.053543 179.687378,171.993225 183.936615,171.441803 
	C185.743103,172.287216 186.655365,173.284775 186.206497,175.358978 
	C178.378525,178.260971 183.414703,183.924042 182.795044,188.604843 
z"/>
<path fill="#6538D0" opacity="1.000000" stroke="none" 
	d="
M183.615448,209.231415 
	C190.849869,210.307648 197.889359,209.983292 205.368958,210.008118 
	C208.445297,210.145309 208.962128,211.992233 209.189026,214.105042 
	C209.751282,219.340271 207.528152,223.418045 203.870956,226.883301 
	C202.551956,228.133072 201.306488,229.469467 199.453888,230.760620 
	C198.224411,231.288864 197.358871,231.589157 196.156555,231.959839 
	C195.170273,229.621964 194.174103,228.167419 191.241043,227.415192 
	C183.092682,225.325394 180.008087,217.768097 183.615448,209.231415 
z"/>
<path fill="#8532C1" opacity="1.000000" stroke="none" 
	d="
M107.526886,148.575195 
	C108.565857,149.441879 109.237701,150.148926 110.221100,151.053940 
	C110.091057,151.944000 109.755211,152.741104 109.189896,153.310318 
	C106.488937,156.029846 105.052231,158.654831 108.258347,162.171432 
	C109.360855,163.380707 109.435684,165.526917 109.931702,167.623383 
	C99.763962,167.970108 89.644531,167.938553 79.027565,167.880554 
	C75.816185,165.361740 76.762459,162.634415 78.418976,160.244446 
	C81.734459,155.460953 86.015877,151.446365 92.095520,151.384018 
	C97.408630,151.329529 102.438026,150.959106 107.526886,148.575195 
z"/>
<path fill="#992EBA" opacity="1.000000" stroke="none" 
	d="
M16.108831,115.343613 
	C17.214031,114.989334 18.184656,114.992546 19.519291,114.994400 
	C27.464731,117.727509 31.723690,123.582916 31.197294,130.474548 
	C31.039282,132.543259 30.682980,134.434219 27.964537,135.373810 
	C19.778820,136.500473 12.040232,137.911667 4.093153,134.319275 
	C1.659920,126.508850 4.781715,120.361801 11.762149,117.644226 
	C13.171457,117.095566 15.277672,117.823807 16.108831,115.343613 
z"/>
<path fill="#8B31BF" opacity="1.000000" stroke="none" 
	d="
M134.295990,145.341888 
	C143.403885,145.045883 152.519196,145.097504 162.142639,145.189453 
	C164.154037,149.457626 161.266785,154.514999 155.894409,157.010437 
	C155.001328,157.425262 154.051102,157.895844 153.092041,157.926331 
	C148.030838,158.087173 143.828613,159.783478 140.968674,164.194626 
	C140.621292,164.730423 139.847565,164.836990 138.766068,164.945221 
	C137.061279,164.551651 136.356979,163.781769 136.696655,161.953369 
	C137.089874,160.768799 137.249115,159.938278 137.655609,159.254837 
	C139.539978,156.086731 140.626236,153.215820 136.828873,150.388657 
	C135.536957,149.426819 135.120087,147.289642 134.295990,145.341888 
z"/>
<path fill="#9B2DB8" opacity="1.000000" stroke="none" 
	d="
M55.784309,111.643112 
	C54.878559,114.255333 54.725456,116.251282 55.680248,118.879547 
	C57.732689,124.529312 53.614918,129.885757 47.525387,130.255829 
	C45.781174,130.361801 43.795200,129.650833 42.490650,132.086014 
	C41.063099,132.403488 39.971439,132.602386 38.628090,131.728470 
	C36.956596,128.772522 36.685818,125.761093 36.129154,122.889099 
	C35.105888,117.609734 39.449268,111.598305 44.752785,110.840897 
	C47.571983,110.438278 50.180458,109.500206 53.277466,108.811218 
	C54.811546,109.281288 55.332882,110.183357 55.784309,111.643112 
z"/>
<path fill="#912FBD" opacity="1.000000" stroke="none" 
	d="
M3.722204,134.384140 
	C11.576468,134.028992 19.444847,134.043655 27.799541,134.074890 
	C31.169743,137.204681 28.526943,139.192749 26.657366,141.076889 
	C24.327637,143.424774 22.494917,145.740570 23.997471,149.591995 
	C22.132858,152.889801 19.733023,152.198669 16.930656,150.646851 
	C17.270428,146.463760 17.014986,143.502075 11.944080,142.552979 
	C7.936930,141.803009 5.090345,138.815659 3.722204,134.384140 
z"/>
<path fill="#9E2CB2" opacity="1.000000" stroke="none" 
	d="
M81.756393,100.518288 
	C82.587723,100.068657 83.525375,100.002037 84.931473,99.898376 
	C90.550117,99.831848 95.223778,102.913307 96.012848,106.858719 
	C96.961227,111.600662 94.591965,115.605461 89.023827,117.166374 
	C85.361732,118.192970 83.339203,121.797424 79.124054,122.275703 
	C77.791092,122.005272 77.103638,121.519562 76.815269,120.200729 
	C77.812714,118.414268 78.587830,116.918610 79.695053,115.733116 
	C83.876648,111.255989 83.373672,106.169212 81.756393,100.518288 
z"/>
<path fill="#8B30BB" opacity="1.000000" stroke="none" 
	d="
M59.463844,160.094025 
	C58.296341,160.021912 57.508175,160.014374 56.325890,160.006653 
	C55.467934,155.585388 57.077011,151.051682 53.505188,146.840393 
	C51.248608,144.179810 53.974285,139.469528 57.738106,139.087448 
	C60.169693,138.840591 61.698071,137.845139 63.439819,136.038818 
	C64.918999,135.317108 65.863358,135.770554 66.962326,136.878815 
	C68.645706,139.463379 67.712845,141.912781 67.080055,143.942139 
	C65.315895,149.599716 62.940998,155.059113 59.463844,160.094025 
z"/>
<path fill="#7C32BE" opacity="1.000000" stroke="none" 
	d="
M186.327026,175.599396 
	C185.394653,174.887497 184.809570,174.043900 183.959274,173.027039 
	C182.897858,166.816925 184.567551,163.147629 189.009628,161.500870 
	C192.662338,160.146744 196.153915,160.842804 198.268661,164.045044 
	C200.494766,167.415939 202.530380,171.018417 203.504364,175.411072 
	C202.929810,176.671768 202.500397,177.520447 202.016739,178.728668 
	C197.500641,175.203354 192.448151,173.812485 186.327026,175.599396 
z"/>
<path fill="#912FBD" opacity="1.000000" stroke="none" 
	d="
M38.732971,130.979034 
	C39.954636,131.276245 40.792587,131.555374 41.890388,132.046295 
	C39.628700,139.298920 34.840988,145.044037 30.972660,151.716049 
	C29.652012,151.851624 28.676985,151.492279 28.041159,150.089386 
	C27.508327,149.085022 26.835068,148.260422 27.152821,147.538971 
	C29.880726,141.345413 32.435207,135.009537 38.732971,130.979034 
z"/>
<path fill="#7A32BE" opacity="1.000000" stroke="none" 
	d="
M136.534317,161.751831 
	C137.331345,162.250412 137.845932,162.969284 138.662903,163.842178 
	C139.721710,164.450317 140.436920,165.260925 140.207230,165.973907 
	C138.174515,172.283447 136.543549,178.849701 130.282837,183.023071 
	C129.038849,182.729263 128.200348,182.446671 127.101433,181.952316 
	C129.285095,174.821213 133.147919,168.577286 136.534317,161.751831 
z"/>
<path fill="#902DB1" opacity="1.000000" stroke="none" 
	d="
M66.531662,138.478577 
	C65.547142,137.646530 64.934906,136.955566 64.034248,136.068100 
	C67.933022,130.622726 72.120216,125.373863 76.596252,119.946251 
	C77.487221,120.148674 78.089348,120.529854 79.029861,121.029663 
	C80.180428,121.874428 80.756546,123.010674 80.244125,123.811432 
	C76.830414,129.146027 73.956276,134.948135 68.372841,138.529984 
	C67.967789,138.789825 67.400970,138.672043 66.531662,138.478577 
z"/>
<path fill="#9C2AAB" opacity="1.000000" stroke="none" 
	d="
M56.143318,111.715515 
	C55.252453,111.267998 54.539246,110.534447 53.666183,109.442093 
	C53.223286,104.228424 57.375023,98.211227 62.549423,96.631569 
	C63.205082,97.698814 63.505436,98.626389 63.961006,99.885857 
	C62.590542,104.700836 59.588318,108.157318 56.143318,111.715515 
z"/>
<path fill="#050305" opacity="1.000000" stroke="none" 
	d="
M63.002502,96.470459 
	C59.891598,100.703041 56.878464,104.634842 53.685829,108.824951 
	C52.261711,111.589775 50.824993,113.024300 47.436996,112.889053 
	C40.328609,112.605270 36.500172,118.976776 39.573673,125.596352 
	C40.461388,127.508286 40.872257,128.872009 39.158764,130.671051 
	C35.429333,137.040253 31.741987,143.083389 27.985882,149.459579 
	C26.876991,149.819656 25.836859,149.846664 24.401398,149.903824 
	C21.939346,149.731461 20.116962,149.015457 20.127544,146.630524 
	C20.135664,144.800919 19.849035,142.822769 22.282711,141.677399 
	C25.148582,140.328568 27.255529,137.978149 28.258934,134.454849 
	C30.030851,127.550583 28.264545,122.560257 22.982260,119.072914 
	C21.693121,118.221832 19.633980,118.057320 19.919762,115.366089 
	C20.040699,112.427185 21.750000,112.105682 23.912689,111.687462 
	C32.752331,109.978058 38.428154,104.841949 40.109116,95.385010 
	C40.337414,92.199570 41.620312,90.689476 44.672310,90.441269 
	C48.123478,90.160591 51.529305,89.327789 54.956367,88.743965 
	C59.758480,87.925903 62.759895,90.665955 63.002502,96.470459 
z"/>
<path fill="#08070B" opacity="1.000000" stroke="none" 
	d="
M199.269333,231.296997 
	C198.866653,228.779755 199.240585,227.224350 201.471313,225.745926 
	C206.942642,222.119720 208.116318,217.640518 206.028381,210.362213 
	C207.069946,207.705521 208.431854,204.911774 211.565430,206.616806 
	C214.768494,208.359634 219.732666,209.550537 217.061676,215.630646 
	C216.712219,218.270203 216.180069,220.516708 215.948288,222.793762 
	C215.765472,224.589935 215.089752,225.713348 213.526688,226.762543 
	C207.981094,230.484909 207.707153,233.852280 212.603043,238.926315 
	C215.558609,242.860992 214.631195,247.047256 214.488907,252.077835 
	C210.586487,248.529129 205.392395,247.297485 206.061646,241.066101 
	C206.278687,239.045334 204.768509,237.104324 202.836517,236.480804 
	C200.245178,235.644516 199.890961,233.698044 199.269333,231.296997 
z"/>
<path fill="#030204" opacity="1.000000" stroke="none" 
	d="
M66.017868,138.645874 
	C70.851532,133.098587 75.583984,127.891815 79.328629,121.507187 
	C82.804367,118.358871 85.148109,114.201462 90.476700,113.871468 
	C92.738098,113.731422 94.011116,111.007477 93.917709,108.468681 
	C93.824905,105.946297 92.522476,103.974556 90.112740,103.195854 
	C88.350403,102.626350 86.622864,102.287941 85.647614,100.090240 
	C83.891083,97.678177 83.985596,95.905876 86.134865,93.970581 
	C89.450508,90.985039 90.790733,87.013374 90.469818,82.228828 
	C89.561111,74.078217 85.385757,69.210350 77.711060,67.395973 
	C76.253258,67.051331 74.628983,66.940376 74.761513,64.399933 
	C74.741058,61.626122 74.797844,59.236675 74.766495,56.406197 
	C74.942390,54.512493 74.969772,52.848373 76.688049,52.280888 
	C83.309540,50.094067 84.373878,44.910248 84.100883,38.499413 
	C88.756645,35.792278 93.326942,33.508629 97.896980,31.224470 
	C98.781853,30.782202 99.735023,29.860910 100.538071,29.977510 
	C103.952515,30.473286 105.918640,34.200272 109.610657,34.249401 
	C113.205238,34.297230 116.416145,34.811546 117.037743,39.319103 
	C117.190216,40.424740 117.892876,41.454506 118.590118,42.759918 
	C120.567688,46.736179 120.743935,49.987419 116.854858,52.770199 
	C115.752380,53.559067 115.637718,55.728455 115.103088,57.630333 
	C118.162842,61.989117 119.750366,66.849007 123.926331,70.266296 
	C126.370125,72.266113 124.172585,76.226021 124.155434,79.691872 
	C124.110649,81.697227 123.220146,83.138824 123.134972,84.719856 
	C122.939796,88.343109 120.835548,89.789101 117.487137,90.426392 
	C111.957138,91.478905 107.821228,94.575516 105.282806,100.085785 
	C104.558060,103.471100 104.099792,106.499237 105.074661,109.905182 
	C107.157463,116.190857 113.094124,120.455856 119.391624,120.501900 
	C125.908455,120.549545 132.132446,116.274223 134.278503,109.922272 
	C135.031906,105.994141 137.263992,104.665985 140.757156,104.979385 
	C150.485641,105.852211 160.269104,106.436508 169.563110,111.175789 
	C172.523087,111.882187 172.943787,113.925438 173.422684,116.127289 
	C174.797958,122.450333 179.277374,125.553406 184.790070,124.183746 
	C189.705505,122.962479 192.010010,118.241920 190.422867,112.364746 
	C189.890762,110.394348 189.628510,108.494308 190.406219,106.205505 
	C192.556381,102.947998 196.224197,101.486984 197.737793,97.654869 
	C199.194458,96.147797 200.325394,94.805168 201.452957,93.476921 
	C203.618423,90.926079 206.118881,90.519600 209.275818,91.408714 
	C218.606552,94.036606 224.721970,90.173538 227.029312,80.051254 
	C226.909241,69.357132 217.259384,64.373558 208.503281,67.284355 
	C204.414246,68.643669 202.704514,67.304955 201.081390,62.307114 
	C200.559769,61.157955 200.159882,60.073112 199.391159,59.634190 
	C193.166397,56.079868 195.670898,49.814098 194.681488,44.320831 
	C195.393173,42.322060 195.859299,40.567871 196.716232,39.031696 
	C198.948898,35.029308 200.718887,31.458067 206.718475,30.681688 
	C211.143600,30.109055 214.586624,28.123814 219.041916,31.276329 
	C222.195236,33.507580 223.909470,35.308300 222.650452,39.492893 
	C222.793579,48.215309 227.508545,54.637829 235.458221,55.396278 
	C240.164062,55.845242 241.602875,58.031902 242.501862,62.184921 
	C244.989075,67.535988 243.728943,72.487747 242.559082,77.804825 
	C242.705017,78.329422 242.643005,78.485687 242.810486,78.746506 
	C243.212189,80.921623 246.328415,81.647911 245.504547,84.529968 
	C245.162399,87.005936 244.791840,89.138206 244.457031,91.633110 
	C244.226974,94.238464 242.944427,95.263466 240.755585,95.880135 
	C236.781006,96.999886 233.708603,99.853569 233.468048,103.850624 
	C233.186234,108.533257 230.601822,109.910866 226.902252,110.931709 
	C224.848328,111.498444 222.887802,112.403671 220.569885,113.381577 
	C218.268982,114.211693 216.553497,113.730743 214.614426,112.929253 
	C210.463257,111.213402 205.319336,114.463127 206.490555,118.392685 
	C207.909637,123.153885 205.464661,126.197403 203.776794,130.133118 
	C201.617493,134.232117 199.516724,137.209747 194.251221,137.632324 
	C190.042328,137.970108 187.750732,141.974564 188.008682,146.564514 
	C188.264206,151.111588 190.760025,153.997345 195.127075,155.055832 
	C199.427933,156.098251 204.077744,154.109787 205.314819,149.918152 
	C206.324585,146.496643 208.413589,145.717636 211.238525,145.148163 
	C216.129379,144.162216 220.995850,143.054428 225.889679,142.084274 
	C229.536713,141.361282 231.441315,142.418274 230.311844,146.575150 
	C229.448715,149.751801 228.792099,152.984558 228.089722,156.587540 
	C227.062759,162.050568 225.989716,167.118408 224.969315,172.599869 
	C224.492722,174.741348 223.181839,175.030136 221.568039,175.133057 
	C219.087646,175.291229 216.396774,175.644119 214.561539,177.243423 
	C210.404221,180.866241 207.128830,179.861710 203.676819,175.936615 
	C200.736633,173.266037 197.595169,171.327881 197.282959,166.867386 
	C197.103790,164.307449 194.261978,162.953613 191.553345,163.151550 
	C188.660751,163.362961 186.537643,164.982101 186.040283,167.978256 
	C185.765488,169.633743 185.801422,171.284653 183.905853,172.550003 
	C180.386353,175.356689 177.789886,175.447632 173.834259,172.805344 
	C162.689026,165.360397 148.321701,173.352432 146.987244,187.601456 
	C143.629593,189.403976 139.972214,189.350082 136.438843,189.847198 
	C132.035965,190.466629 132.014404,185.907181 129.914825,183.376129 
	C132.918427,176.915924 135.959503,170.819992 138.982925,164.360138 
	C139.541550,163.012314 140.236771,162.078171 140.672623,161.035583 
	C142.206680,157.365997 144.371445,155.807449 148.842224,156.065521 
	C155.682678,156.460373 160.215866,152.388519 162.594543,145.597626 
	C164.174744,136.550247 160.553452,129.822266 153.039291,127.372681 
	C145.487091,124.910690 138.294067,128.264008 134.564331,135.985550 
	C132.914246,139.401672 124.441116,140.503662 121.455948,137.321747 
	C119.184723,134.900833 116.835304,134.016998 113.932289,135.233994 
	C111.044930,136.444397 110.330544,139.073883 110.863983,141.919617 
	C111.385941,144.704056 108.954460,145.989670 108.014572,148.403107 
	C107.311821,149.306183 106.531837,149.776566 106.180130,150.465576 
	C104.169632,154.404190 101.557465,155.142899 97.068779,154.023376 
	C88.120575,151.791580 80.404716,157.598007 78.492722,167.456085 
	C74.688354,171.482559 68.049866,171.517822 65.606941,167.448669 
	C63.916885,164.633591 59.182011,164.980347 59.159065,160.388062 
	C60.021278,155.778976 59.003380,150.905075 63.567516,147.835480 
	C64.852142,146.971497 64.947647,144.838455 64.355125,143.185104 
	C63.672359,141.279907 64.459961,140.036301 66.017868,138.645874 
z"/>
<path fill="#040204" opacity="1.000000" stroke="none" 
	d="
M179.796906,43.796494 
	C184.713837,48.433361 185.511780,54.233749 179.919418,60.369514 
	C177.968079,67.042961 177.966400,67.076622 170.896835,66.725349 
	C167.961273,66.579498 164.994415,67.006470 162.970108,68.996025 
	C159.325806,72.577789 155.724915,72.226181 151.388351,69.783722 
	C147.822601,68.049423 144.400436,67.051498 141.255569,65.394760 
	C138.261047,63.817226 137.159882,61.749687 139.485580,58.335190 
	C136.049469,52.145531 138.721008,47.753250 143.128052,43.407642 
	C144.731842,41.175720 146.202621,39.259323 147.685440,37.352291 
	C149.056137,35.589466 150.541809,35.093452 152.760376,36.184864 
	C157.662643,38.596512 162.777313,38.559990 167.540100,35.947853 
	C170.146042,34.518631 171.687332,35.001064 173.425522,37.094818 
	C175.322784,39.380165 177.469543,41.458397 179.796906,43.796494 
z"/>
<path fill="#070407" opacity="1.000000" stroke="none" 
	d="
M262.594421,56.071903 
	C268.158386,57.907349 266.450775,62.350025 266.751465,66.448425 
	C263.977356,67.949692 261.188812,68.966850 258.445251,70.093506 
	C251.345840,73.008919 249.257004,71.995491 247.101273,64.513962 
	C246.826126,63.559097 246.500702,62.618717 246.032776,61.326965 
	C246.006470,58.219990 243.054138,55.469845 247.147964,52.666267 
	C250.264832,50.531750 252.355133,50.295647 255.281952,52.169128 
	C257.509155,53.594784 259.918732,54.735508 262.594421,56.071903 
z"/>
<path fill="#B028A7" opacity="1.000000" stroke="none" 
	d="
M243.018173,78.729218 
	C242.819168,78.800995 242.686005,78.665131 242.703766,78.308304 
	C242.767029,78.173149 242.996353,78.607399 243.018173,78.729218 
z"/>
<path fill="#BD27AC" opacity="1.000000" stroke="none" 
	d="
M139.341339,58.010452 
	C139.164841,62.383232 141.787781,64.058311 145.490356,65.090195 
	C147.546600,65.663261 149.459610,66.750267 151.715439,67.832184 
	C152.684372,68.968254 152.988403,69.950241 152.347321,71.398003 
	C150.278305,73.425423 148.317276,73.049805 146.143814,72.291939 
	C137.759644,69.368446 131.652527,71.882256 127.618927,79.747742 
	C127.393105,80.188103 126.992020,80.508369 126.249535,81.001495 
	C124.757217,81.507668 123.721466,81.314095 122.495239,80.282516 
	C123.142456,75.345955 123.750183,71.214607 118.335419,68.210327 
	C115.305176,66.529045 114.579849,62.500675 115.025360,58.400318 
	C123.066124,59.254387 130.997467,59.595512 139.341339,58.010452 
z"/>
<path fill="#040204" opacity="1.000000" stroke="none" 
	d="
M125.570427,80.279297 
	C125.401794,74.815666 128.925079,73.526672 132.556763,70.716370 
	C138.958633,65.762390 143.545166,68.476707 148.942383,70.867790 
	C149.240707,70.999954 149.575043,71.050888 150.252533,71.160591 
	C156.489914,70.920776 157.205658,71.465454 158.596420,77.595215 
	C159.801025,83.559189 162.933212,86.738266 167.932785,87.395638 
	C173.250259,88.094795 177.062576,85.530396 179.987976,78.942688 
	C180.007355,76.255371 179.451614,74.042473 178.602188,71.883858 
	C176.619064,66.844162 176.878311,66.165627 182.092880,63.285587 
	C186.861298,56.132809 189.627151,53.873192 197.365326,62.975533 
	C203.398209,64.984467 204.761520,67.505424 202.782578,72.843369 
	C202.043076,74.838013 201.414719,76.843956 201.150955,79.357910 
	C201.120361,80.760323 201.056900,81.851875 201.563660,82.687843 
	C204.984543,88.331039 203.461975,92.884262 198.388824,97.068321 
	C196.820328,100.405151 193.959747,102.134003 191.667877,104.851463 
	C190.076584,106.959023 188.593445,108.308624 186.016830,107.778931 
	C181.860458,106.924477 178.123795,107.932861 174.894333,110.718102 
	C173.647766,111.793198 172.237839,111.970657 170.319656,111.433388 
	C165.038116,108.597504 158.976578,108.103767 155.104782,103.224724 
	C153.724609,101.485527 151.558884,102.620216 149.728409,103.724312 
	C145.781921,106.104698 141.446060,105.011902 137.265625,104.583794 
	C135.698608,104.423325 135.031662,102.779694 134.420013,100.965668 
	C133.203400,96.698792 130.251038,94.346046 127.153336,92.171219 
	C121.920074,88.497063 121.470779,85.884285 125.570427,80.279297 
z"/>
<path fill="#B928AE" opacity="1.000000" stroke="none" 
	d="
M199.232635,80.338799 
	C198.455429,77.838974 198.287323,75.388191 199.618149,73.793755 
	C203.134079,69.581413 200.930130,66.696289 197.793030,63.458916 
	C198.568481,62.803680 199.491531,62.462738 200.772568,62.032646 
	C203.677704,65.363297 206.428085,65.587036 210.688309,64.331253 
	C220.152557,61.541477 228.277679,68.262894 229.596100,79.483612 
	C228.507355,81.375008 227.050629,82.063866 225.333252,82.164642 
	C217.781265,82.607780 210.227783,82.677834 202.677673,82.109924 
	C201.487991,82.020439 200.464249,81.533600 199.232635,80.338799 
z"/>
<path fill="#B728AC" opacity="1.000000" stroke="none" 
	d="
M157.014252,79.417191 
	C156.367813,75.488113 155.543365,72.284637 150.876984,71.440948 
	C151.040543,70.372177 151.468658,69.562813 151.945236,68.406097 
	C155.676254,69.914284 158.735794,69.887001 161.877808,66.448502 
	C164.149200,63.962788 167.934967,63.142689 171.174850,64.230286 
	C175.102524,65.548775 177.450394,64.387505 179.583038,60.897659 
	C180.512924,61.427174 181.136459,62.143970 182.097534,63.004456 
	C179.819351,66.081459 178.909241,68.975494 181.598099,72.582741 
	C182.686523,74.042923 182.784378,76.338509 182.154144,78.676521 
	C181.411850,79.535789 180.922699,80.419632 180.136307,80.529488 
	C172.529266,81.592079 164.903152,82.762329 157.014252,79.417191 
z"/>
<path fill="#A62CB5" opacity="1.000000" stroke="none" 
	d="
M135.906342,99.579697 
	C138.197144,103.399010 145.048676,104.175354 148.307205,101.239128 
	C152.862381,97.134506 155.902145,97.813721 159.085938,103.319954 
	C161.380905,107.289017 166.278214,106.805206 169.940765,109.167633 
	C170.582596,110.273048 170.914139,111.194839 170.287964,112.591522 
	C167.365707,112.020355 164.725906,111.086899 162.112045,110.085739 
	C159.954559,109.259361 158.003906,108.393631 155.546173,109.753555 
	C153.418991,110.930588 150.941467,110.525772 149.162491,108.598602 
	C145.958420,105.127632 142.024017,107.196480 138.420593,107.167061 
	C136.850983,107.154236 137.339645,109.361382 136.332916,110.678986 
	C134.831055,112.414528 133.234619,113.169556 131.310196,113.247932 
	C123.519920,113.565193 115.729782,113.613907 107.941322,113.215355 
	C106.417290,113.137375 105.027748,112.611671 103.434860,111.329102 
	C101.068268,107.645576 101.898613,104.164589 102.789131,100.343285 
	C103.497093,99.552147 103.991699,98.943756 104.603477,98.835762 
	C114.925606,97.013763 125.242172,96.252922 135.906342,99.579697 
z"/>
<path fill="#9F2DB6" opacity="1.000000" stroke="none" 
	d="
M170.248795,113.279037 
	C170.044098,112.075455 170.093903,111.167793 170.184174,109.807358 
	C171.795837,109.949745 172.916321,109.542160 174.133057,108.269508 
	C177.410950,104.841003 181.578415,103.848045 186.009415,105.310486 
	C188.046341,105.982765 189.117172,105.407181 190.541016,103.826157 
	C191.649078,103.962090 192.049988,104.596916 192.320786,105.789474 
	C192.181732,107.766144 191.648956,109.249855 192.530853,110.953156 
	C195.051834,115.822144 194.034622,120.358360 190.330795,124.148033 
	C187.020218,127.535393 182.764221,128.346725 178.401413,126.698143 
	C173.391312,124.804932 170.962677,120.880905 170.953751,115.483612 
	C170.952698,114.847153 170.660538,114.211166 170.248795,113.279037 
z"/>
<path fill="#942FBA" opacity="1.000000" stroke="none" 
	d="
M100.083244,128.353714 
	C102.342415,133.946793 101.424500,138.555756 97.147285,142.253296 
	C93.438934,145.459076 88.331367,145.731247 84.130157,143.131653 
	C79.838432,140.476044 78.159241,136.518890 78.921959,131.620514 
	C79.659363,126.884636 82.518944,123.881645 87.129387,122.603348 
	C92.140633,121.213913 96.016464,122.870384 100.083244,128.353714 
z"/>
<path fill="#B02AB0" opacity="1.000000" stroke="none" 
	d="
M198.789154,80.401596 
	C208.728683,79.977364 218.615097,79.955902 229.004395,79.916702 
	C228.620041,90.103775 219.855881,97.393997 210.775955,94.319633 
	C205.457870,92.518990 202.736526,94.226868 199.609985,97.986679 
	C198.347260,98.631485 197.495148,98.539009 196.823212,97.182541 
	C202.946350,92.053696 200.519806,86.391006 198.789154,80.401596 
z"/>
<path fill="#AB2AB2" opacity="1.000000" stroke="none" 
	d="
M136.278473,99.518280 
	C125.521751,99.919617 114.729027,99.958992 103.467606,99.997215 
	C104.626381,93.526627 109.102951,89.103149 115.240173,88.408607 
	C120.848404,87.773933 121.432655,84.784386 122.064598,80.359619 
	C123.168762,79.984573 124.137161,79.985481 125.468796,79.982277 
	C125.656616,81.281830 125.597488,82.614441 125.281731,83.883186 
	C124.609100,86.585854 124.860245,88.458992 127.935516,89.755890 
	C132.055099,91.493195 134.796967,94.850586 136.278473,99.518280 
z"/>
<path fill="#A02DB8" opacity="1.000000" stroke="none" 
	d="
M103.058533,111.352188 
	C113.760307,110.998001 124.465958,110.999336 135.648590,111.000290 
	C134.537537,118.033905 129.511093,121.615112 123.001968,122.879028 
	C115.732323,124.290619 109.596786,121.685028 105.134521,115.651054 
	C104.261932,114.471123 103.743942,113.028946 103.058533,111.352188 
z"/>
<path fill="#BB26A6" opacity="1.000000" stroke="none" 
	d="
M90.889565,58.737625 
	C90.722656,55.136333 92.106323,52.865196 95.240486,52.058655 
	C97.612228,51.448315 99.816582,51.987968 101.406387,54.098415 
	C103.524811,56.910606 102.860840,60.838722 99.925102,62.760574 
	C96.634071,64.915016 93.301567,63.569481 90.889565,58.737625 
z"/>
<path fill="#9C2AA8" opacity="1.000000" stroke="none" 
	d="
M196.552032,96.857819 
	C197.447601,97.103439 198.040512,97.498146 198.972229,98.011581 
	C198.461121,101.732956 195.775925,103.842422 192.712006,106.026093 
	C191.990982,105.557304 191.562469,104.944199 190.992493,103.982635 
	C192.650452,101.425087 194.449905,99.215988 196.552032,96.857819 
z"/>
<path fill="#B229B0" opacity="1.000000" stroke="none" 
	d="
M156.581787,79.520340 
	C164.751846,79.089844 172.918228,79.043816 181.554901,78.996201 
	C181.051453,85.566849 176.677292,89.751038 170.288712,90.221329 
	C163.725693,90.704468 158.749390,86.960060 156.581787,79.520340 
z"/>
</svg>