<svg version="1.1" id="Layer_1" xmlns="http://www.w3.org/2000/svg" xmlns:xlink="http://www.w3.org/1999/xlink" x="0px" y="0px"
	 width="56" height="28" viewBox="0 0 512 512" enable-background="new 0 0 512 512" xml:space="preserve">
<path fill="#000000" opacity="1.000000" stroke="none" 
	d="
M277.000000,513.000000 
	C184.689072,513.000000 92.878143,513.000000 1.033606,513.000000 
	C1.033606,342.397369 1.033606,171.794754 1.033606,1.096060 
	C171.560944,1.096060 342.121979,1.096060 512.841492,1.096060 
	C512.841492,171.666550 512.841492,342.333252 512.841492,513.000000 
	C434.461395,513.000000 355.980682,513.000000 277.000000,513.000000 
M493.002319,292.500000 
	C493.002289,236.516006 493.012146,180.532028 492.998169,124.548035 
	C492.990753,94.877350 473.201477,75.082153 443.513885,75.079170 
	C319.215881,75.066658 194.917862,75.067993 70.619858,75.078178 
	C40.626537,75.080635 21.002110,94.801025 20.999947,124.906952 
	C20.993628,212.881943 20.995125,300.856934 20.999096,388.831940 
	C21.000469,419.262604 40.561920,438.916046 70.869431,438.923279 
	C116.689743,438.934174 162.510056,438.924622 208.330368,438.927399 
	C217.574875,438.927948 219.588593,440.334900 222.567963,448.899139 
	C230.512848,448.899139 238.493271,448.899139 246.438217,448.899139 
	C248.976608,441.515808 251.847290,438.878418 257.176697,438.962891 
	C262.361908,439.045013 265.228882,441.793518 267.407867,448.819214 
	C275.509399,448.819214 283.631012,448.819214 291.699524,448.819214 
	C293.919159,440.926117 296.500916,438.933075 304.522797,438.931274 
	C351.009583,438.921021 397.496399,438.951233 443.983154,438.916901 
	C473.010132,438.895477 492.968964,418.948273 492.995453,389.972595 
	C493.024841,357.815094 493.002258,325.657532 493.002319,292.500000 
z"/>
<path fill="#FECB36" opacity="1.000000" stroke="none" 
	d="
M493.002319,293.000000 
	C493.002258,325.657532 493.024841,357.815094 492.995453,389.972595 
	C492.968964,418.948273 473.010132,438.895477 443.983154,438.916901 
	C397.496399,438.951233 351.009583,438.921021 304.522797,438.931274 
	C296.500916,438.933075 293.919159,440.926117 291.699524,448.819214 
	C283.631012,448.819214 275.509399,448.819214 267.407867,448.819214 
	C265.228882,441.793518 262.361908,439.045013 257.176697,438.962891 
	C251.847290,438.878418 248.976608,441.515808 246.438217,448.899139 
	C238.493271,448.899139 230.512848,448.899139 222.567963,448.899139 
	C219.588593,440.334900 217.574875,438.927948 208.330368,438.927399 
	C162.510056,438.924622 116.689743,438.934174 70.869431,438.923279 
	C40.561920,438.916046 21.000469,419.262604 20.999096,388.831940 
	C20.995125,300.856934 20.993628,212.881943 20.999947,124.906952 
	C21.002110,94.801025 40.626537,75.080635 70.619858,75.078178 
	C194.917862,75.067993 319.215881,75.066658 443.513885,75.079170 
	C473.201477,75.082153 492.990753,94.877350 492.998169,124.548035 
	C493.012146,180.532028 493.002289,236.516006 493.002319,293.000000 
M202.033676,235.515945 
	C203.033997,233.103882 204.497787,230.776352 204.955765,228.265366 
	C207.132889,216.328735 209.036133,204.342178 211.278290,190.929092 
	C212.170334,193.852844 212.677963,195.383545 213.104614,196.936493 
	C216.099625,207.837891 219.001328,218.765671 222.093277,229.639404 
	C223.690460,235.256439 228.118820,238.625580 233.336502,238.634964 
	C238.574234,238.644409 242.971329,235.238525 244.699966,229.740295 
	C245.247604,227.998474 245.593094,226.193970 246.061417,224.426178 
	C248.841003,213.933929 251.629440,203.444016 254.414917,192.953323 
	C255.584442,193.836090 255.841721,194.719254 256.002472,195.619659 
	C257.962006,206.593628 259.880951,217.574905 261.865692,228.544281 
	C263.179565,235.805710 267.698425,239.522476 273.681915,238.378036 
	C279.800323,237.207764 282.737671,232.129974 281.487000,225.068909 
	C279.600861,214.420090 277.801605,203.755890 275.925293,193.105286 
	C273.356140,178.521912 270.836487,163.928894 268.116913,149.373398 
	C266.994019,143.363571 262.725067,139.737671 257.215851,139.481766 
	C251.742569,139.227524 247.256149,142.576645 245.421371,148.385849 
	C244.821487,150.285202 244.430511,152.249786 243.919434,154.178024 
	C240.516846,167.015518 237.107620,179.851257 233.389099,193.860886 
	C232.626694,191.724762 232.241837,190.834595 231.988480,189.908447 
	C228.303513,176.438538 224.619324,162.968353 220.973328,149.487869 
	C219.610321,144.448425 216.908508,140.776001 211.471558,139.756485 
	C204.814926,138.508270 199.133774,142.453033 197.888168,149.718536 
	C193.529785,175.140335 189.336960,200.590607 185.113129,226.035339 
	C184.371964,230.500153 185.474136,234.408798 189.465637,236.923096 
	C193.594376,239.523788 197.679489,239.095566 202.033676,235.515945 
M345.105164,183.801346 
	C350.318024,191.321182 355.535889,198.837555 360.742462,206.361740 
	C366.896240,215.254791 372.989044,224.190613 379.210876,233.035736 
	C382.179321,237.255798 386.384003,239.126678 391.406616,237.649826 
	C396.380920,236.187225 398.971588,232.471771 399.322662,227.275467 
	C399.412354,225.947998 399.442749,224.614258 399.443176,223.283371 
	C399.450500,199.635300 399.456329,175.987228 399.435059,152.339172 
	C399.433411,150.513748 399.417725,148.652588 399.079926,146.870300 
	C398.241943,142.448380 394.423798,139.278671 389.941528,139.054489 
	C385.304291,138.822571 381.009399,141.878967 379.954102,146.432098 
	C379.509064,148.352203 379.452484,150.392746 379.446320,152.379242 
	C379.404907,165.701981 379.434998,179.024902 379.408844,192.347717 
	C379.406158,193.714325 379.185394,195.080521 378.984100,197.380249 
	C377.328705,195.080048 376.264465,193.651520 375.252258,192.187042 
	C364.184143,176.173401 353.133881,160.147400 342.054901,144.141281 
	C339.344360,140.225250 335.706085,138.268127 330.897736,139.582230 
	C325.897644,140.948730 323.418365,144.565079 323.401245,149.553604 
	C323.310913,175.865662 323.309692,202.178497 323.451141,228.490112 
	C323.462891,230.677521 324.304230,233.181335 325.563629,234.973465 
	C328.079071,238.552856 331.875366,239.881668 336.145203,238.569565 
	C340.794800,237.140778 343.276520,233.793839 343.298340,228.887756 
	C343.359009,215.232285 343.302521,201.576172 343.407471,187.921204 
	C343.419678,186.332977 344.155090,184.750320 345.105164,183.801346 
M371.319000,324.138611 
	C381.246552,338.522827 391.160889,352.916168 401.108246,367.286682 
	C405.074188,373.016113 409.536957,375.108459 414.475464,373.677673 
	C419.690765,372.166718 422.625275,367.783356 422.644257,360.812012 
	C422.711426,336.153259 422.713318,311.494049 422.648407,286.835297 
	C422.629211,279.530060 418.661102,275.022125 412.623962,275.005707 
	C406.478333,274.988953 402.710144,279.342804 402.675995,286.782745 
	C402.612549,300.611450 402.664917,314.440643 402.644562,328.269623 
	C402.642487,329.675720 402.473114,331.081512 402.317535,333.466431 
	C400.769806,331.342224 399.788849,330.054352 398.868866,328.724335 
	C387.789856,312.707489 376.755615,296.659515 365.630554,280.674744 
	C360.951477,273.951752 353.165863,272.994843 348.967560,278.887848 
	C347.377655,281.119568 346.683289,284.438751 346.663971,287.269623 
	C346.492279,312.427246 346.559662,337.586517 346.574310,362.745300 
	C346.575104,364.073669 346.628693,365.419495 346.842072,366.727112 
	C347.573425,371.209045 350.443848,373.832581 354.683685,374.741577 
	C358.811035,375.626404 362.537384,374.168213 364.591888,370.564636 
	C365.911133,368.250732 366.461426,365.222351 366.500946,362.501801 
	C366.689789,349.508606 366.578094,336.511169 366.597321,323.515259 
	C366.599518,322.031860 366.752289,320.548645 366.900513,317.898712 
	C368.806335,320.551636 369.869263,322.031219 371.319000,324.138611 
M265.597382,355.793732 
	C273.776886,370.431274 288.059326,377.356628 303.599487,374.220459 
	C319.159668,371.080292 330.320740,359.021790 331.428894,342.591644 
	C332.222473,330.825409 332.324921,318.902740 331.399963,307.155060 
	C329.845642,287.413483 313.956146,274.080688 294.479523,275.035339 
	C276.127533,275.934814 262.043457,291.318512 261.908875,310.691925 
	C261.842957,320.184387 261.521332,329.698456 262.043365,339.162567 
	C262.339478,344.531036 264.107391,349.818329 265.597382,355.793732 
M244.719421,297.967133 
	C237.471497,281.039795 221.911209,272.249664 205.216797,275.651855 
	C187.892838,279.182343 177.011810,293.001190 176.961960,311.593567 
	C176.935623,321.418091 176.834137,331.245392 177.012192,341.066956 
	C177.335876,358.920654 191.641968,373.776733 209.394501,374.910187 
	C227.483429,376.065125 243.689316,363.728149 245.987488,345.902588 
	C247.256149,336.062439 246.885864,325.973724 246.749298,316.003967 
	C246.670288,310.237122 245.587433,304.484039 244.719421,297.967133 
M179.012711,175.616394 
	C179.010712,175.117126 179.015213,174.617737 179.005783,174.118607 
	C178.650467,155.315933 164.914413,140.385300 146.786911,139.096298 
	C128.212830,137.775543 111.768608,150.404129 109.782883,169.302185 
	C108.418182,182.290039 108.404373,195.649902 109.755272,208.638748 
	C111.743942,227.759888 128.308289,240.386688 147.171402,238.927917 
	C165.175964,237.535568 178.856216,222.362350 178.997726,203.547577 
	C179.065308,194.561432 179.012131,185.574356 179.012711,175.616394 
M119.709770,373.995819 
	C123.516113,374.310730 127.333572,374.992676 131.126877,374.877747 
	C148.691345,374.345337 163.025055,361.211151 163.191833,345.500366 
	C163.338257,331.704956 155.360168,323.350311 143.674561,317.982697 
	C136.135620,314.519836 128.236252,311.843536 120.682648,308.409485 
	C118.753250,307.532318 116.153099,304.992462 116.292969,303.434875 
	C116.504440,301.079773 118.413422,297.600372 120.379486,296.949280 
	C124.289192,295.654541 128.923767,295.027924 132.898071,295.856232 
	C137.289017,296.771423 141.337570,299.508972 145.422165,301.666840 
	C150.077209,304.126099 155.340515,303.309235 158.477371,299.381226 
	C161.667191,295.386902 161.373032,289.997345 157.757339,286.187683 
	C146.559494,274.389099 122.078545,271.404022 108.577385,280.387115 
	C99.712341,286.285553 95.125473,294.685181 96.091354,305.413849 
	C97.002556,315.535187 102.376167,322.672150 111.952042,326.528137 
	C120.117485,329.816162 128.296173,333.087708 136.332504,336.672577 
	C140.005768,338.311188 143.637375,340.663635 143.094666,345.524902 
	C142.566162,350.259003 139.004486,352.610260 134.885895,353.941223 
	C132.717773,354.641876 130.304153,354.976257 128.027832,354.875946 
	C120.796928,354.557343 114.504005,351.945435 109.215477,346.829376 
	C104.188545,341.966339 98.415962,341.862579 94.218117,346.243866 
	C90.070786,350.572418 90.551804,356.297241 95.466599,361.262878 
	C101.985229,367.848938 109.988029,371.675079 119.709770,373.995819 
M452.417511,164.166153 
	C452.903503,165.036026 453.458405,165.875000 453.864563,166.780670 
	C457.060638,173.907135 462.128082,176.548981 467.814270,174.019196 
	C473.482483,171.497437 475.110809,165.780609 472.162079,158.755264 
	C466.514923,145.300751 451.787476,136.981064 437.829468,139.360428 
	C422.066223,142.047531 410.936401,154.195267 410.342255,170.283264 
	C409.881653,182.756088 409.884583,195.272675 410.338287,207.745926 
	C410.922394,223.804214 422.157501,236.100922 437.797180,238.706100 
	C451.995941,241.071289 467.203796,232.731216 472.130768,218.780365 
	C473.992615,213.508530 473.505463,207.369507 473.865845,201.611816 
	C475.094666,181.979645 467.214142,183.359497 454.477386,183.769974 
	C449.306976,183.936600 445.719971,187.080383 444.880188,191.595413 
	C443.948975,196.601990 446.133911,200.613251 450.923798,202.954376 
	C451.995636,203.478241 453.626709,204.290039 453.728119,205.123978 
	C454.214569,209.124344 454.229279,213.122726 450.501648,215.996490 
	C446.633667,218.978439 442.491089,219.958847 437.898193,218.021606 
	C432.701599,215.829742 430.317352,211.630173 430.256104,206.208298 
	C430.128235,194.885117 430.156250,183.559113 430.234344,172.235077 
	C430.273132,166.613251 432.555756,162.190155 438.004272,160.003601 
	C443.458618,157.814758 448.084503,159.370453 452.417511,164.166153 
M99.441437,204.841537 
	C92.143204,201.196930 87.451057,202.933044 83.910118,210.588211 
	C81.086479,216.692642 75.918839,219.495605 69.846367,218.216476 
	C63.995720,216.984055 60.236526,212.492859 60.155117,206.002808 
	C60.013004,194.673172 60.010838,183.339111 60.156181,172.009552 
	C60.239182,165.539673 64.099770,160.960602 69.889015,159.832184 
	C76.094437,158.622650 81.116394,161.370117 83.933647,167.515915 
	C87.027779,174.265717 92.156326,176.754929 97.751434,174.222595 
	C103.306694,171.708298 104.958534,166.188599 102.190094,159.390533 
	C96.482407,145.374939 82.006760,137.509857 66.504379,140.001373 
	C52.097160,142.316849 40.658413,155.215118 40.216698,170.382263 
	C39.853039,182.869064 39.827721,195.385284 40.230751,207.869797 
	C40.713696,222.829849 51.978943,235.533035 66.217278,237.999756 
	C81.792702,240.698120 96.491013,232.686493 102.301910,218.487534 
	C104.334648,213.520508 104.227089,209.108780 99.441437,204.841537 
M293.888580,181.499969 
	C293.889221,196.633759 293.852478,211.767670 293.906982,226.901260 
	C293.932343,233.937653 297.687042,238.109360 303.783417,238.134079 
	C309.782501,238.158401 313.848114,233.846924 313.867004,226.986862 
	C313.936615,201.708649 313.933655,176.430038 313.869385,151.151779 
	C313.851837,144.251144 309.858856,139.935318 303.868195,139.912445 
	C297.780975,139.889206 293.952606,144.092361 293.906708,151.064041 
	C293.842102,160.875626 293.889221,170.687958 293.888580,181.499969 
z"/>
<path fill="#030201" opacity="1.000000" stroke="none" 
	d="
M201.757370,235.775879 
	C197.679489,239.095566 193.594376,239.523788 189.465637,236.923096 
	C185.474136,234.408798 184.371964,230.500153 185.113129,226.035339 
	C189.336960,200.590607 193.529785,175.140335 197.888168,149.718536 
	C199.133774,142.453033 204.814926,138.508270 211.471558,139.756485 
	C216.908508,140.776001 219.610321,144.448425 220.973328,149.487869 
	C224.619324,162.968353 228.303513,176.438538 231.988480,189.908447 
	C232.241837,190.834595 232.626694,191.724762 233.389099,193.860886 
	C237.107620,179.851257 240.516846,167.015518 243.919434,154.178024 
	C244.430511,152.249786 244.821487,150.285202 245.421371,148.385849 
	C247.256149,142.576645 251.742569,139.227524 257.215851,139.481766 
	C262.725067,139.737671 266.994019,143.363571 268.116913,149.373398 
	C270.836487,163.928894 273.356140,178.521912 275.925293,193.105286 
	C277.801605,203.755890 279.600861,214.420090 281.487000,225.068909 
	C282.737671,232.129974 279.800323,237.207764 273.681915,238.378036 
	C267.698425,239.522476 263.179565,235.805710 261.865692,228.544281 
	C259.880951,217.574905 257.962006,206.593628 256.002472,195.619659 
	C255.841721,194.719254 255.584442,193.836090 254.414917,192.953323 
	C251.629440,203.444016 248.841003,213.933929 246.061417,224.426178 
	C245.593094,226.193970 245.247604,227.998474 244.699966,229.740295 
	C242.971329,235.238525 238.574234,238.644409 233.336502,238.634964 
	C228.118820,238.625580 223.690460,235.256439 222.093277,229.639404 
	C219.001328,218.765671 216.099625,207.837891 213.104614,196.936493 
	C212.677963,195.383545 212.170334,193.852844 211.278290,190.929092 
	C209.036133,204.342178 207.132889,216.328735 204.955765,228.265366 
	C204.497787,230.776352 203.033997,233.103882 201.757370,235.775879 
z"/>
<path fill="#040301" opacity="1.000000" stroke="none" 
	d="
M344.830200,183.483215 
	C344.155090,184.750320 343.419678,186.332977 343.407471,187.921204 
	C343.302521,201.576172 343.359009,215.232285 343.298340,228.887756 
	C343.276520,233.793839 340.794800,237.140778 336.145203,238.569565 
	C331.875366,239.881668 328.079071,238.552856 325.563629,234.973465 
	C324.304230,233.181335 323.462891,230.677521 323.451141,228.490112 
	C323.309692,202.178497 323.310913,175.865662 323.401245,149.553604 
	C323.418365,144.565079 325.897644,140.948730 330.897736,139.582230 
	C335.706085,138.268127 339.344360,140.225250 342.054901,144.141281 
	C353.133881,160.147400 364.184143,176.173401 375.252258,192.187042 
	C376.264465,193.651520 377.328705,195.080048 378.984100,197.380249 
	C379.185394,195.080521 379.406158,193.714325 379.408844,192.347717 
	C379.434998,179.024902 379.404907,165.701981 379.446320,152.379242 
	C379.452484,150.392746 379.509064,148.352203 379.954102,146.432098 
	C381.009399,141.878967 385.304291,138.822571 389.941528,139.054489 
	C394.423798,139.278671 398.241943,142.448380 399.079926,146.870300 
	C399.417725,148.652588 399.433411,150.513748 399.435059,152.339172 
	C399.456329,175.987228 399.450500,199.635300 399.443176,223.283371 
	C399.442749,224.614258 399.412354,225.947998 399.322662,227.275467 
	C398.971588,232.471771 396.380920,236.187225 391.406616,237.649826 
	C386.384003,239.126678 382.179321,237.255798 379.210876,233.035736 
	C372.989044,224.190613 366.896240,215.254791 360.742462,206.361740 
	C355.535889,198.837555 350.318024,191.321182 344.830200,183.483215 
z"/>
<path fill="#040301" opacity="1.000000" stroke="none" 
	d="
M371.125610,323.824707 
	C369.869263,322.031219 368.806335,320.551636 366.900513,317.898712 
	C366.752289,320.548645 366.599518,322.031860 366.597321,323.515259 
	C366.578094,336.511169 366.689789,349.508606 366.500946,362.501801 
	C366.461426,365.222351 365.911133,368.250732 364.591888,370.564636 
	C362.537384,374.168213 358.811035,375.626404 354.683685,374.741577 
	C350.443848,373.832581 347.573425,371.209045 346.842072,366.727112 
	C346.628693,365.419495 346.575104,364.073669 346.574310,362.745300 
	C346.559662,337.586517 346.492279,312.427246 346.663971,287.269623 
	C346.683289,284.438751 347.377655,281.119568 348.967560,278.887848 
	C353.165863,272.994843 360.951477,273.951752 365.630554,280.674744 
	C376.755615,296.659515 387.789856,312.707489 398.868866,328.724335 
	C399.788849,330.054352 400.769806,331.342224 402.317535,333.466431 
	C402.473114,331.081512 402.642487,329.675720 402.644562,328.269623 
	C402.664917,314.440643 402.612549,300.611450 402.675995,286.782745 
	C402.710144,279.342804 406.478333,274.988953 412.623962,275.005707 
	C418.661102,275.022125 422.629211,279.530060 422.648407,286.835297 
	C422.713318,311.494049 422.711426,336.153259 422.644257,360.812012 
	C422.625275,367.783356 419.690765,372.166718 414.475464,373.677673 
	C409.536957,375.108459 405.074188,373.016113 401.108246,367.286682 
	C391.160889,352.916168 381.246552,338.522827 371.125610,323.824707 
z"/>
<path fill="#030301" opacity="1.000000" stroke="none" 
	d="
M265.404907,355.467957 
	C264.107391,349.818329 262.339478,344.531036 262.043365,339.162567 
	C261.521332,329.698456 261.842957,320.184387 261.908875,310.691925 
	C262.043457,291.318512 276.127533,275.934814 294.479523,275.035339 
	C313.956146,274.080688 329.845642,287.413483 331.399963,307.155060 
	C332.324921,318.902740 332.222473,330.825409 331.428894,342.591644 
	C330.320740,359.021790 319.159668,371.080292 303.599487,374.220459 
	C288.059326,377.356628 273.776886,370.431274 265.404907,355.467957 
M286.571747,350.957306 
	C291.630463,355.194275 297.212494,356.337738 303.247345,353.394104 
	C309.285248,350.448975 311.741730,345.251312 311.751770,338.736847 
	C311.766449,329.245087 311.917572,319.749481 311.702057,310.262543 
	C311.497620,301.263763 305.030548,294.932434 296.593445,295.001770 
	C288.127319,295.071350 281.991486,301.510193 281.919495,310.574097 
	C281.844086,320.065338 281.511902,329.581451 282.090637,339.037842 
	C282.327240,342.903900 284.661133,346.641663 286.571747,350.957306 
z"/>
<path fill="#030201" opacity="1.000000" stroke="none" 
	d="
M244.837891,298.345947 
	C245.587433,304.484039 246.670288,310.237122 246.749298,316.003967 
	C246.885864,325.973724 247.256149,336.062439 245.987488,345.902588 
	C243.689316,363.728149 227.483429,376.065125 209.394501,374.910187 
	C191.641968,373.776733 177.335876,358.920654 177.012192,341.066956 
	C176.834137,331.245392 176.935623,321.418091 176.961960,311.593567 
	C177.011810,293.001190 187.892838,279.182343 205.216797,275.651855 
	C221.911209,272.249664 237.471497,281.039795 244.837891,298.345947 
M198.876297,347.318451 
	C203.478806,353.905243 209.319489,356.302979 215.918549,354.314819 
	C222.875275,352.218872 226.764038,346.816132 226.826553,338.859375 
	C226.901123,329.368042 226.970520,319.873352 226.803940,310.384308 
	C226.646194,301.399658 220.258530,295.001312 211.816101,295.001587 
	C203.339767,295.001862 197.067444,301.449860 196.978500,310.432465 
	C196.892761,319.090942 196.818100,327.754272 197.026123,336.408569 
	C197.108429,339.832794 197.966812,343.238342 198.876297,347.318451 
z"/>
<path fill="#030201" opacity="1.000000" stroke="none" 
	d="
M179.013184,176.102051 
	C179.012131,185.574356 179.065308,194.561432 178.997726,203.547577 
	C178.856216,222.362350 165.175964,237.535568 147.171402,238.927917 
	C128.308289,240.386688 111.743942,227.759888 109.755272,208.638748 
	C108.404373,195.649902 108.418182,182.290039 109.782883,169.302185 
	C111.768608,150.404129 128.212830,137.775543 146.786911,139.096298 
	C164.914413,140.385300 178.650467,155.315933 179.005783,174.118607 
	C179.015213,174.617737 179.010712,175.117126 179.013184,176.102051 
M138.120468,160.245987 
	C131.805969,163.431519 129.019806,168.628235 129.091660,175.623062 
	C129.185745,184.780869 129.045761,193.941040 129.134613,203.098953 
	C129.225052,212.421158 135.503418,219.002289 144.115982,218.997192 
	C152.791519,218.992065 158.936691,212.470352 158.996140,203.072403 
	C159.055145,193.747482 159.059525,184.421555 158.996506,175.096695 
	C158.917618,163.420151 150.101135,156.844177 138.120468,160.245987 
z"/>
<path fill="#030201" opacity="1.000000" stroke="none" 
	d="
M119.289101,373.935913 
	C109.988029,371.675079 101.985229,367.848938 95.466599,361.262878 
	C90.551804,356.297241 90.070786,350.572418 94.218117,346.243866 
	C98.415962,341.862579 104.188545,341.966339 109.215477,346.829376 
	C114.504005,351.945435 120.796928,354.557343 128.027832,354.875946 
	C130.304153,354.976257 132.717773,354.641876 134.885895,353.941223 
	C139.004486,352.610260 142.566162,350.259003 143.094666,345.524902 
	C143.637375,340.663635 140.005768,338.311188 136.332504,336.672577 
	C128.296173,333.087708 120.117485,329.816162 111.952042,326.528137 
	C102.376167,322.672150 97.002556,315.535187 96.091354,305.413849 
	C95.125473,294.685181 99.712341,286.285553 108.577385,280.387115 
	C122.078545,271.404022 146.559494,274.389099 157.757339,286.187683 
	C161.373032,289.997345 161.667191,295.386902 158.477371,299.381226 
	C155.340515,303.309235 150.077209,304.126099 145.422165,301.666840 
	C141.337570,299.508972 137.289017,296.771423 132.898071,295.856232 
	C128.923767,295.027924 124.289192,295.654541 120.379486,296.949280 
	C118.413422,297.600372 116.504440,301.079773 116.292969,303.434875 
	C116.153099,304.992462 118.753250,307.532318 120.682648,308.409485 
	C128.236252,311.843536 136.135620,314.519836 143.674561,317.982697 
	C155.360168,323.350311 163.338257,331.704956 163.191833,345.500366 
	C163.025055,361.211151 148.691345,374.345337 131.126877,374.877747 
	C127.333572,374.992676 123.516113,374.310730 119.289101,373.935913 
z"/>
<path fill="#030301" opacity="1.000000" stroke="none" 
	d="
M452.192444,163.872131 
	C448.084503,159.370453 443.458618,157.814758 438.004272,160.003601 
	C432.555756,162.190155 430.273132,166.613251 430.234344,172.235077 
	C430.156250,183.559113 430.128235,194.885117 430.256104,206.208298 
	C430.317352,211.630173 432.701599,215.829742 437.898193,218.021606 
	C442.491089,219.958847 446.633667,218.978439 450.501648,215.996490 
	C454.229279,213.122726 454.214569,209.124344 453.728119,205.123978 
	C453.626709,204.290039 451.995636,203.478241 450.923798,202.954376 
	C446.133911,200.613251 443.948975,196.601990 444.880188,191.595413 
	C445.719971,187.080383 449.306976,183.936600 454.477386,183.769974 
	C467.214142,183.359497 475.094666,181.979645 473.865845,201.611816 
	C473.505463,207.369507 473.992615,213.508530 472.130768,218.780365 
	C467.203796,232.731216 451.995941,241.071289 437.797180,238.706100 
	C422.157501,236.100922 410.922394,223.804214 410.338287,207.745926 
	C409.884583,195.272675 409.881653,182.756088 410.342255,170.283264 
	C410.936401,154.195267 422.066223,142.047531 437.829468,139.360428 
	C451.787476,136.981064 466.514923,145.300751 472.162079,158.755264 
	C475.110809,165.780609 473.482483,171.497437 467.814270,174.019196 
	C462.128082,176.548981 457.060638,173.907135 453.864563,166.780670 
	C453.458405,165.875000 452.903503,165.036026 452.192444,163.872131 
z"/>
<path fill="#040301" opacity="1.000000" stroke="none" 
	d="
M99.755630,205.062103 
	C104.227089,209.108780 104.334648,213.520508 102.301910,218.487534 
	C96.491013,232.686493 81.792702,240.698120 66.217278,237.999756 
	C51.978943,235.533035 40.713696,222.829849 40.230751,207.869797 
	C39.827721,195.385284 39.853039,182.869064 40.216698,170.382263 
	C40.658413,155.215118 52.097160,142.316849 66.504379,140.001373 
	C82.006760,137.509857 96.482407,145.374939 102.190094,159.390533 
	C104.958534,166.188599 103.306694,171.708298 97.751434,174.222595 
	C92.156326,176.754929 87.027779,174.265717 83.933647,167.515915 
	C81.116394,161.370117 76.094437,158.622650 69.889015,159.832184 
	C64.099770,160.960602 60.239182,165.539673 60.156181,172.009552 
	C60.010838,183.339111 60.013004,194.673172 60.155117,206.002808 
	C60.236526,212.492859 63.995720,216.984055 69.846367,218.216476 
	C75.918839,219.495605 81.086479,216.692642 83.910118,210.588211 
	C87.451057,202.933044 92.143204,201.196930 99.755630,205.062103 
z"/>
<path fill="#030201" opacity="1.000000" stroke="none" 
	d="
M293.888580,180.999969 
	C293.889221,170.687958 293.842102,160.875626 293.906708,151.064041 
	C293.952606,144.092361 297.780975,139.889206 303.868195,139.912445 
	C309.858856,139.935318 313.851837,144.251144 313.869385,151.151779 
	C313.933655,176.430038 313.936615,201.708649 313.867004,226.986862 
	C313.848114,233.846924 309.782501,238.158401 303.783417,238.134079 
	C297.687042,238.109360 293.932343,233.937653 293.906982,226.901260 
	C293.852478,211.767670 293.889221,196.633759 293.888580,180.999969 
z"/>
<path fill="#FCC935" opacity="1.000000" stroke="none" 
	d="
M286.306335,350.697540 
	C284.661133,346.641663 282.327240,342.903900 282.090637,339.037842 
	C281.511902,329.581451 281.844086,320.065338 281.919495,310.574097 
	C281.991486,301.510193 288.127319,295.071350 296.593445,295.001770 
	C305.030548,294.932434 311.497620,301.263763 311.702057,310.262543 
	C311.917572,319.749481 311.766449,329.245087 311.751770,338.736847 
	C311.741730,345.251312 309.285248,350.448975 303.247345,353.394104 
	C297.212494,356.337738 291.630463,355.194275 286.306335,350.697540 
z"/>
<path fill="#FCCA35" opacity="1.000000" stroke="none" 
	d="
M198.674072,346.985413 
	C197.966812,343.238342 197.108429,339.832794 197.026123,336.408569 
	C196.818100,327.754272 196.892761,319.090942 196.978500,310.432465 
	C197.067444,301.449860 203.339767,295.001862 211.816101,295.001587 
	C220.258530,295.001312 226.646194,301.399658 226.803940,310.384308 
	C226.970520,319.873352 226.901123,329.368042 226.826553,338.859375 
	C226.764038,346.816132 222.875275,352.218872 215.918549,354.314819 
	C209.319489,356.302979 203.478806,353.905243 198.674072,346.985413 
z"/>
<path fill="#FCCA35" opacity="1.000000" stroke="none" 
	d="
M138.495056,160.125778 
	C150.101135,156.844177 158.917618,163.420151 158.996506,175.096695 
	C159.059525,184.421555 159.055145,193.747482 158.996140,203.072403 
	C158.936691,212.470352 152.791519,218.992065 144.115982,218.997192 
	C135.503418,219.002289 129.225052,212.421158 129.134613,203.098953 
	C129.045761,193.941040 129.185745,184.780869 129.091660,175.623062 
	C129.019806,168.628235 131.805969,163.431519 138.495056,160.125778 
z"/>
</svg>