<svg version="1.1" id="Layer_1" xmlns="http://www.w3.org/2000/svg" xmlns:xlink="http://www.w3.org/1999/xlink" x="0px" y="0px"
	 width="56" height="28" viewBox="0 0 66 66" enable-background="new 0 0 66 66" xml:space="preserve">
<path fill="#000000" opacity="1.000000" stroke="none" 
	d="
M35.000000,67.000000 
	C23.354519,67.000000 12.209039,67.000000 1.031779,67.000000 
	C1.031779,45.062962 1.031779,23.125872 1.031779,1.094389 
	C22.894974,1.094389 44.790489,1.094389 66.843002,1.094389 
	C66.843002,22.999117 66.843002,44.999443 66.843002,67.000000 
	C56.460114,67.000000 45.980057,67.000000 35.000000,67.000000 
M40.475166,48.999886 
	C47.812416,48.949589 55.424709,49.750282 61.683479,44.923248 
	C63.409027,43.592434 64.956039,40.522305 64.660675,38.536453 
	C64.405510,36.820915 61.637943,34.944656 59.589283,34.152248 
	C56.300442,32.880150 52.420410,33.015095 49.268024,31.536640 
	C42.504604,28.364630 35.991478,24.638748 29.484770,20.947666 
	C25.978964,18.958916 23.139341,17.074692 20.640821,22.477119 
	C19.038334,25.942102 15.952247,26.024717 12.830653,23.415236 
	C9.904453,20.969090 6.632576,20.853046 5.596768,25.067322 
	C4.250226,30.545856 3.717890,36.237782 3.042357,41.862747 
	C2.666628,44.991325 4.069315,46.847614 7.503720,47.037666 
	C18.167007,47.627766 28.823708,48.336906 40.475166,48.999886 
z"/>
<path fill="#FA5252" opacity="1.000000" stroke="none" 
	d="
M39.979065,48.999870 
	C28.823708,48.336906 18.167007,47.627766 7.503720,47.037666 
	C4.069315,46.847614 2.666628,44.991325 3.042357,41.862747 
	C3.717890,36.237782 4.250226,30.545856 5.596768,25.067322 
	C6.632576,20.853046 9.904453,20.969090 12.830653,23.415236 
	C15.952247,26.024717 19.038334,25.942102 20.640821,22.477119 
	C23.139341,17.074692 25.978964,18.958916 29.484770,20.947666 
	C35.991478,24.638748 42.504604,28.364630 49.268024,31.536640 
	C52.420410,33.015095 56.300442,32.880150 59.589283,34.152248 
	C61.637943,34.944656 64.405510,36.820915 64.660675,38.536453 
	C64.956039,40.522305 63.409027,43.592434 61.683479,44.923248 
	C55.424709,49.750282 47.812416,48.949589 39.979065,48.999870 
M18.902998,28.580084 
	C15.562414,28.036737 12.221830,27.493391 8.578259,26.900763 
	C8.160840,28.167755 7.638841,29.752180 7.458168,30.300579 
	C11.247324,30.543673 15.090367,30.225618 18.621065,31.128710 
	C27.227352,33.330044 35.603149,36.459923 44.240498,38.502254 
	C49.518600,39.750278 55.109116,39.677063 60.559319,40.197243 
	C60.654552,39.754528 60.749786,39.311813 60.845016,38.869099 
	C49.579559,34.747948 36.594597,34.569469 27.559397,25.040054 
	C24.965488,26.028547 22.256630,27.060846 18.902998,28.580084 
M35.060654,43.547779 
	C30.677130,42.604290 26.293606,41.660801 22.107595,40.759823 
	C22.462029,42.703804 22.744274,44.251862 23.006327,45.689163 
	C30.459469,45.689163 38.168613,45.689163 45.877762,45.689163 
	C45.888519,45.477436 45.899277,45.265709 45.910034,45.053982 
	C42.559055,44.676846 39.208080,44.299709 35.060654,43.547779 
z"/>
<path fill="#000000" opacity="1.000000" stroke="none" 
	d="
M19.225386,28.336615 
	C22.256630,27.060846 24.965488,26.028547 27.559397,25.040054 
	C36.594597,34.569469 49.579559,34.747948 60.845016,38.869099 
	C60.749786,39.311813 60.654552,39.754528 60.559319,40.197243 
	C55.109116,39.677063 49.518600,39.750278 44.240498,38.502254 
	C35.603149,36.459923 27.227352,33.330044 18.621065,31.128710 
	C15.090367,30.225618 11.247324,30.543673 7.458168,30.300579 
	C7.638841,29.752180 8.160840,28.167755 8.578259,26.900763 
	C12.221830,27.493391 15.562414,28.036737 19.225386,28.336615 
z"/>
<path fill="#000000" opacity="1.000000" stroke="none" 
	d="
M35.458878,43.735176 
	C39.208080,44.299709 42.559055,44.676846 45.910034,45.053982 
	C45.899277,45.265709 45.888519,45.477436 45.877762,45.689163 
	C38.168613,45.689163 30.459469,45.689163 23.006327,45.689163 
	C22.744274,44.251862 22.462029,42.703804 22.107595,40.759823 
	C26.293606,41.660801 30.677130,42.604290 35.458878,43.735176 
z"/>
</svg>